<svg width="546" height="981" viewBox="0 0 546 981" fill="none" xmlns="http://www.w3.org/2000/svg">
<path d="M143.784 979.94C230.401 793.593 250.229 599.035 256.946 162.255L288.62 162.344C293.656 585.358 307.006 789.436 393.783 980.644L143.784 979.94Z" fill="url(#paint0_linear_229_441)"/>
<path d="M236.785 979.202C269.549 700.332 266.352 509.025 257.219 162.256L288.952 162.345C274.964 520.144 269.996 713.224 304.785 979.393L236.785 979.202Z" fill="url(#paint1_linear_229_441)"/>
<path d="M216.8 146L216 429.999" stroke="url(#paint2_linear_229_441)"/>
<path d="M243.199 122.216L242.757 279.216" stroke="url(#paint3_linear_229_441)"/>
<path d="M314.182 128.417L313.869 239.416" stroke="url(#paint4_linear_229_441)"/>
<path d="M331 156L331 346" stroke="url(#paint5_linear_229_441)"/>
<path d="M313.485 198.415C313.484 198.785 313.297 199.203 312.819 199.668C312.341 200.133 311.608 200.605 310.62 201.069C308.647 201.995 305.762 202.839 302.157 203.55C294.955 204.969 284.987 205.835 273.964 205.804C262.941 205.773 252.978 204.851 245.785 203.391C242.184 202.66 239.303 201.8 237.335 200.862C236.35 200.393 235.62 199.917 235.144 199.449C234.669 198.982 234.484 198.563 234.485 198.192C234.486 197.822 234.673 197.404 235.151 196.94C235.63 196.474 236.362 196.002 237.35 195.539C239.323 194.612 242.209 193.768 245.814 193.058C253.015 191.639 262.983 190.773 274.006 190.804C285.029 190.835 294.992 191.757 302.186 193.217C305.787 193.947 308.668 194.808 310.635 195.745C311.621 196.214 312.35 196.69 312.826 197.158C313.302 197.626 313.486 198.044 313.485 198.415Z" stroke="url(#paint6_linear_229_441)"/>
<path d="M332.417 222.468C332.415 223.118 332.092 223.806 331.36 224.529C330.627 225.253 329.521 225.975 328.052 226.676C325.117 228.078 320.839 229.349 315.514 230.416C304.873 232.549 290.154 233.849 273.885 233.803C257.616 233.758 242.904 232.375 232.275 230.182C226.957 229.084 222.686 227.789 219.759 226.371C218.294 225.662 217.192 224.934 216.463 224.205C215.735 223.478 215.416 222.788 215.417 222.139C215.419 221.489 215.743 220.801 216.474 220.078C217.207 219.354 218.314 218.632 219.783 217.931C222.718 216.529 226.995 215.258 232.32 214.191C242.962 212.058 257.68 210.758 273.95 210.804C290.219 210.849 304.93 212.232 315.559 214.425C320.878 215.523 325.148 216.818 328.076 218.236C329.541 218.945 330.643 219.673 331.372 220.401C332.099 221.129 332.419 221.819 332.417 222.468Z" stroke="url(#paint7_linear_229_441)"/>
<path d="M360.308 261.547C360.305 262.611 359.774 263.703 358.648 264.816C357.521 265.93 355.834 267.026 353.618 268.084C349.188 270.199 342.748 272.111 334.753 273.713C318.77 276.917 296.675 278.868 272.259 278.8C247.844 278.731 225.759 276.655 209.795 273.362C201.809 271.714 195.38 269.766 190.962 267.626C188.751 266.556 187.071 265.45 185.95 264.329C184.831 263.21 184.306 262.116 184.309 261.052C184.312 259.988 184.843 258.896 185.968 257.783C187.095 256.67 188.782 255.573 190.999 254.515C195.429 252.4 201.868 250.489 209.864 248.886C225.847 245.682 247.942 243.731 272.358 243.8C296.773 243.868 318.857 245.944 334.822 249.238C342.808 250.885 349.237 252.833 353.655 254.973C355.865 256.043 357.546 257.15 358.667 258.27C359.786 259.389 360.311 260.484 360.308 261.547Z" stroke="url(#paint8_linear_229_441)"/>
<path d="M407.076 343.679C407.071 345.433 406.196 347.198 404.415 348.96C402.634 350.723 399.982 352.445 396.525 354.098C389.612 357.402 379.581 360.38 367.15 362.876C342.294 367.864 307.946 370.9 269.999 370.793C232.053 370.686 197.722 367.457 172.896 362.328C160.478 359.763 150.465 356.728 143.57 353.385C140.122 351.713 137.48 349.976 135.709 348.203C133.938 346.431 133.073 344.662 133.077 342.907C133.082 341.153 133.958 339.388 135.739 337.626C137.52 335.863 140.172 334.141 143.629 332.489C150.542 329.184 160.573 326.206 173.004 323.711C197.859 318.722 232.208 315.686 270.154 315.793C308.101 315.9 342.432 319.129 367.258 324.258C379.676 326.823 389.689 329.858 396.583 333.201C400.032 334.873 402.673 336.61 404.445 338.383C406.215 340.155 407.081 341.924 407.076 343.679Z" stroke="url(#paint9_linear_229_441)"/>
<path d="M544.654 493.567C544.644 497.22 542.818 500.836 539.235 504.383C535.65 507.931 530.341 511.372 523.463 514.66C509.71 521.235 489.786 527.149 465.132 532.098C415.833 541.994 347.726 548.013 272.5 547.801C197.275 547.589 129.203 541.187 79.96 531.013C55.3346 525.925 35.4444 519.9 21.7279 513.247C14.8686 509.92 9.57957 506.449 6.0147 502.881C2.45105 499.314 0.645985 495.688 0.656272 492.035C0.666559 488.382 2.49202 484.766 6.0757 481.219C9.66061 477.671 14.9691 474.23 21.8471 470.942C35.6007 464.367 55.5246 458.453 80.1783 453.504C129.477 443.608 197.585 437.589 272.81 437.801C348.035 438.013 416.108 444.415 465.35 454.589C489.976 459.677 509.866 465.702 523.582 472.355C530.442 475.682 535.731 479.153 539.296 482.721C542.859 486.288 544.664 489.914 544.654 493.567Z" stroke="url(#paint10_linear_229_441)"/>
<path d="M292.565 169.856C292.565 169.89 292.547 169.999 292.333 170.181C292.123 170.359 291.784 170.554 291.3 170.753C290.336 171.148 288.912 171.514 287.116 171.823C283.531 172.44 278.56 172.817 273.057 172.801C267.554 172.786 262.585 172.381 259.004 171.744C257.209 171.425 255.787 171.051 254.826 170.65C254.343 170.449 254.005 170.252 253.796 170.072C253.583 169.889 253.565 169.78 253.565 169.746C253.565 169.713 253.584 169.603 253.798 169.421C254.008 169.243 254.347 169.048 254.831 168.849C255.794 168.454 257.219 168.088 259.015 167.779C262.6 167.162 267.571 166.786 273.074 166.801C278.577 166.817 283.546 167.221 287.127 167.858C288.921 168.178 290.344 168.551 291.305 168.952C291.788 169.154 292.126 169.35 292.335 169.53C292.548 169.713 292.565 169.823 292.565 169.856Z" stroke="url(#paint11_linear_229_441)"/>
<path d="M294.559 172.361C294.559 172.437 294.518 172.582 294.279 172.793C294.042 173.002 293.663 173.227 293.13 173.455C292.066 173.909 290.496 174.327 288.519 174.681C284.574 175.387 279.104 175.818 273.049 175.801C266.995 175.784 261.527 175.322 257.586 174.594C255.611 174.229 254.044 173.802 252.982 173.342C252.45 173.111 252.073 172.884 251.837 172.673C251.599 172.461 251.559 172.316 251.559 172.24C251.559 172.165 251.6 172.02 251.839 171.809C252.076 171.599 252.455 171.374 252.989 171.147C254.052 170.693 255.622 170.275 257.599 169.921C261.544 169.215 267.014 168.784 273.069 168.801C279.123 168.818 284.591 169.28 288.532 170.008C290.507 170.373 292.074 170.8 293.136 171.26C293.668 171.491 294.045 171.718 294.281 171.928C294.519 172.141 294.559 172.286 294.559 172.361Z" stroke="url(#paint12_linear_229_441)"/>
<path d="M297.548 175.87C297.547 175.978 297.488 176.156 297.208 176.4C296.931 176.642 296.494 176.899 295.884 177.156C294.668 177.67 292.878 178.142 290.629 178.54C286.14 179.335 279.92 179.82 273.037 179.801C266.153 179.781 259.936 179.261 255.451 178.441C253.205 178.03 251.418 177.548 250.205 177.028C249.596 176.767 249.16 176.508 248.885 176.264C248.607 176.018 248.548 175.84 248.548 175.732C248.548 175.623 248.608 175.445 248.888 175.201C249.165 174.959 249.602 174.702 250.212 174.445C251.428 173.931 253.218 173.459 255.466 173.061C259.956 172.266 266.176 171.781 273.059 171.801C279.942 171.82 286.16 172.34 290.644 173.16C292.891 173.571 294.678 174.053 295.891 174.573C296.5 174.834 296.935 175.093 297.211 175.337C297.489 175.583 297.548 175.761 297.548 175.87Z" stroke="url(#paint13_linear_229_441)"/>
<path d="M302.527 183.384C302.526 183.511 302.449 183.72 302.1 184.003C301.757 184.281 301.22 184.571 300.482 184.859C299.01 185.434 296.852 185.96 294.149 186.403C288.752 187.287 281.28 187.824 273.014 187.801C264.749 187.778 257.279 187.198 251.887 186.284C249.188 185.826 247.032 185.288 245.564 184.705C244.827 184.412 244.292 184.119 243.95 183.839C243.603 183.554 243.527 183.345 243.527 183.218C243.527 183.091 243.604 182.882 243.954 182.599C244.297 182.321 244.834 182.031 245.572 181.743C247.044 181.167 249.202 180.642 251.905 180.199C257.301 179.315 264.774 178.778 273.04 178.801C281.305 178.824 288.775 179.404 294.166 180.318C296.866 180.776 299.022 181.314 300.49 181.897C301.227 182.19 301.762 182.483 302.103 182.763C302.451 183.048 302.527 183.257 302.527 183.384Z" stroke="url(#paint14_linear_229_441)"/>
<path d="M254.781 163.463L250.085 154.463C249.738 153.797 250.221 153 250.972 153H295.673C296.424 153 296.907 153.797 296.559 154.463L291.864 163.463C291.691 163.793 291.35 164 290.977 164H255.668C255.295 164 254.953 163.793 254.781 163.463Z" fill="#EDEFF0"/>
<path d="M221.252 168C218.252 165.429 221.252 131 249.252 112.5H252.252V155H244.752C239.253 155 224.252 170.571 221.252 168Z" fill="url(#paint15_linear_229_441)"/>
<path d="M325.252 168C328.252 165.429 325.252 131 297.252 112.5H294.252V155H301.752C307.252 155 322.253 170.571 325.252 168Z" fill="url(#paint16_linear_229_441)"/>
<path d="M250.253 46.9999L250.253 155H296.253V46.9999C296.253 34.9999 281.753 -6.10352e-05 273.253 -6.10352e-05C264.253 -6.10352e-05 250.253 34.9999 250.253 46.9999Z" fill="url(#paint17_linear_229_441)"/>
<path d="M259.253 36.5029C270.148 32.5577 276.188 32.6123 286.753 36.5029" stroke="url(#paint18_linear_229_441)" stroke-width="2" stroke-linecap="round"/>
<path d="M266.753 168C266.753 173 269.753 176.5 273.253 176.5C276.253 176.5 279.345 173.5 279.253 168C278.797 140.973 276.253 112 273.253 112C270.253 112 268.565 130.36 266.753 168Z" fill="url(#paint19_linear_229_441)"/>
<defs>
<linearGradient id="paint0_linear_229_441" x1="271.086" y1="162.295" x2="269.832" y2="902.624" gradientUnits="userSpaceOnUse">
<stop stop-color="#7D3220" stop-opacity="0.52"/>
<stop offset="1" stop-color="#FFC0B0" stop-opacity="0"/>
</linearGradient>
<linearGradient id="paint1_linear_229_441" x1="273.086" y1="162.301" x2="270.785" y2="979.297" gradientUnits="userSpaceOnUse">
<stop offset="0.119792" stop-color="#E48771" stop-opacity="0.31"/>
<stop offset="0.875" stop-color="#FF8C70" stop-opacity="0"/>
</linearGradient>
<linearGradient id="paint2_linear_229_441" x1="217.3" y1="146.001" x2="216.5" y2="430" gradientUnits="userSpaceOnUse">
<stop stop-color="#FAFAFA" stop-opacity="0"/>
<stop offset="0.494792" stop-color="#FAFAFA"/>
<stop offset="1" stop-color="#FAFAFA" stop-opacity="0"/>
</linearGradient>
<linearGradient id="paint3_linear_229_441" x1="243.699" y1="122.218" x2="243.257" y2="279.217" gradientUnits="userSpaceOnUse">
<stop stop-color="#FAFAFA" stop-opacity="0"/>
<stop offset="0.494792" stop-color="#FAFAFA"/>
<stop offset="1" stop-color="#FAFAFA" stop-opacity="0"/>
</linearGradient>
<linearGradient id="paint4_linear_229_441" x1="314.682" y1="128.418" x2="314.369" y2="239.418" gradientUnits="userSpaceOnUse">
<stop stop-color="#FAFAFA" stop-opacity="0"/>
<stop offset="0.494792" stop-color="#FAFAFA"/>
<stop offset="1" stop-color="#FAFAFA" stop-opacity="0"/>
</linearGradient>
<linearGradient id="paint5_linear_229_441" x1="331.5" y1="156" x2="331.5" y2="346" gradientUnits="userSpaceOnUse">
<stop stop-color="#FAFAFA" stop-opacity="0"/>
<stop offset="0.494792" stop-color="#FAFAFA"/>
<stop offset="1" stop-color="#FAFAFA" stop-opacity="0"/>
</linearGradient>
<linearGradient id="paint6_linear_229_441" x1="273.523" y1="206.302" x2="273.568" y2="190.303" gradientUnits="userSpaceOnUse">
<stop stop-color="#CE8573"/>
<stop offset="1" stop-color="#F9AD9B"/>
</linearGradient>
<linearGradient id="paint7_linear_229_441" x1="273.235" y1="234.302" x2="273.303" y2="210.302" gradientUnits="userSpaceOnUse">
<stop stop-color="#CE8573"/>
<stop offset="1" stop-color="#F9AD9B"/>
</linearGradient>
<linearGradient id="paint8_linear_229_441" x1="271.285" y1="279.297" x2="271.387" y2="243.297" gradientUnits="userSpaceOnUse">
<stop stop-color="#CE8573"/>
<stop offset="1" stop-color="#F9AD9B"/>
</linearGradient>
<linearGradient id="paint9_linear_229_441" x1="268.487" y1="371.289" x2="268.645" y2="315.289" gradientUnits="userSpaceOnUse">
<stop stop-color="#CE8573"/>
<stop offset="1" stop-color="#F9AD9B"/>
</linearGradient>
<linearGradient id="paint10_linear_229_441" x1="269.504" y1="548.292" x2="269.817" y2="437.293" gradientUnits="userSpaceOnUse">
<stop stop-color="#CE8573"/>
<stop offset="1" stop-color="#F9AD9B"/>
</linearGradient>
<linearGradient id="paint11_linear_229_441" x1="272.836" y1="173.3" x2="272.855" y2="166.301" gradientUnits="userSpaceOnUse">
<stop stop-color="#CE8573"/>
<stop offset="1" stop-color="#F9AD9B"/>
</linearGradient>
<linearGradient id="paint12_linear_229_441" x1="272.806" y1="176.3" x2="272.829" y2="168.3" gradientUnits="userSpaceOnUse">
<stop stop-color="#CE8573"/>
<stop offset="1" stop-color="#F9AD9B"/>
</linearGradient>
<linearGradient id="paint13_linear_229_441" x1="272.76" y1="180.3" x2="272.786" y2="171.3" gradientUnits="userSpaceOnUse">
<stop stop-color="#CE8573"/>
<stop offset="1" stop-color="#F9AD9B"/>
</linearGradient>
<linearGradient id="paint14_linear_229_441" x1="272.683" y1="188.3" x2="272.711" y2="178.3" gradientUnits="userSpaceOnUse">
<stop stop-color="#CE8573"/>
<stop offset="1" stop-color="#F9AD9B"/>
</linearGradient>
<linearGradient id="paint15_linear_229_441" x1="252.252" y1="112.5" x2="204.15" y2="140.031" gradientUnits="userSpaceOnUse">
<stop stop-color="#E85937"/>
<stop offset="1" stop-color="#FF8C70"/>
</linearGradient>
<linearGradient id="paint16_linear_229_441" x1="294.252" y1="112.5" x2="342.354" y2="140.031" gradientUnits="userSpaceOnUse">
<stop stop-color="#E85937"/>
<stop offset="1" stop-color="#FF8C70"/>
</linearGradient>
<linearGradient id="paint17_linear_229_441" x1="273.253" y1="-6.10352e-05" x2="273.253" y2="155" gradientUnits="userSpaceOnUse">
<stop stop-color="#EDEFF0"/>
<stop offset="1" stop-color="white"/>
</linearGradient>
<linearGradient id="paint18_linear_229_441" x1="286.753" y1="33.5644" x2="286.132" y2="39.3751" gradientUnits="userSpaceOnUse">
<stop stop-color="#E85937"/>
<stop offset="1" stop-color="#FF8C70"/>
</linearGradient>
<linearGradient id="paint19_linear_229_441" x1="279.255" y1="112" x2="255.156" y2="116.671" gradientUnits="userSpaceOnUse">
<stop stop-color="#E85937"/>
<stop offset="1" stop-color="#FF8C70"/>
</linearGradient>
</defs>
</svg>
