<svg width="474" height="607" viewBox="0 0 474 607" fill="none" xmlns="http://www.w3.org/2000/svg">
<g filter="url(#filter0_d_231_9856)">
<path d="M290.597 563C433.89 563 550.053 446.838 550.053 303.544C550.053 160.25 433.89 44.088 290.597 44.088C147.303 44.088 31.1408 160.25 31.1408 303.544C31.1408 446.838 147.303 563 290.597 563Z" fill="url(#paint0_linear_231_9856)"/>
<path opacity="0.244001" fill-rule="evenodd" clip-rule="evenodd" d="M507.603 445.813C461.235 516.396 381.358 562.999 290.596 562.999C264.29 562.999 238.899 559.084 214.972 551.805C232.22 544.287 262.216 530.868 273.896 523.519C285.705 516.09 296.548 509.011 306.698 502.383C341.686 479.538 368.442 462.068 398.173 454.188C457.854 438.37 494.595 443.071 507.603 445.813Z" fill="url(#paint1_linear_231_9856)"/>
<path opacity="0.506975" fill-rule="evenodd" clip-rule="evenodd" d="M500.976 455.423C486.809 457.344 470.825 460.385 453.218 465.05C385.058 483.11 316.337 549.316 302.955 562.71C384.443 558.889 456.1 517.477 500.976 455.423Z" fill="url(#paint2_linear_231_9856)"/>
<path opacity="0.193522" fill-rule="evenodd" clip-rule="evenodd" d="M511.703 167.719C466.039 93.5419 384.093 44.0873 290.596 44.0873C275.007 44.0873 259.739 45.4622 244.906 48.0973C257.302 91.1818 287.535 166.776 344.789 153.957C415.43 138.141 423.911 144.867 461.058 174.327C465.634 177.956 470.646 181.93 476.261 186.25C498.511 203.363 508.04 189.205 511.703 167.719Z" fill="url(#paint3_linear_231_9856)"/>
<path opacity="0.150902" fill-rule="evenodd" clip-rule="evenodd" d="M485.597 132.388C438.045 78.2551 368.311 44.0872 290.596 44.0872C284.053 44.0872 277.566 44.3294 271.144 44.8054C280.986 79.1925 305.165 140.119 351.103 129.831C407.577 117.183 414.357 122.561 444.055 146.119C447.714 149.022 451.72 152.199 456.209 155.654C476.788 171.486 483.756 153.847 485.597 132.388Z" fill="url(#paint4_linear_231_9856)"/>
<path opacity="0.477214" fill-rule="evenodd" clip-rule="evenodd" d="M222.388 53.146C112.184 83.095 31.1404 183.855 31.1404 303.543C31.1404 408.19 93.0934 498.367 182.323 539.397C286.623 503.176 361.492 404.03 361.492 287.397C361.492 186.324 305.267 98.3837 222.388 53.146Z" fill="url(#paint5_linear_231_9856)"/>
<path opacity="0.180315" fill-rule="evenodd" clip-rule="evenodd" d="M144.584 518.044C191.738 539.253 240.947 515.256 302.041 485.462C354.427 459.916 415.55 430.109 491.609 420.884C503.903 419.393 515.101 417.167 525.284 414.316C541.169 380.722 550.052 343.17 550.052 303.543C550.052 277.275 546.149 251.918 538.889 228.021C530.697 230.615 522.466 233.86 514.527 236.989C493.8 245.16 475.061 252.547 464.17 245.532C454.561 239.342 453.008 229.378 451.293 218.379C448.795 202.352 445.954 184.129 417.346 172.194C394.556 162.685 366.674 166.431 341.216 169.852C312.787 173.672 287.381 177.086 275.463 161.182C252.872 131.038 219.285 91.0146 136.437 163.142C56.9634 232.333 44.1446 399.499 100.98 480.641C114.07 494.65 128.693 507.207 144.584 518.044Z" fill="url(#paint6_linear_231_9856)"/>
<path fill-rule="evenodd" clip-rule="evenodd" d="M545.187 253.276C515.997 269.66 477.209 297.195 487.323 323.587C495.315 344.445 485.665 361.926 477.926 375.944C470.379 389.616 464.65 399.994 478.883 406.996C489.247 412.095 506.738 414.35 524.89 415.146C541.022 381.341 550.052 343.497 550.052 303.543C550.052 286.345 548.379 269.538 545.187 253.276Z" fill="url(#paint7_linear_231_9856)"/>
<path opacity="0.547224" d="M500.163 207.927C511.392 210.11 519.448 217.262 518.157 223.903C517.846 225.505 517.018 226.931 515.785 228.142C517.524 230.017 518.371 232.138 517.973 234.19C517.046 238.959 509.736 241.551 501.647 239.978C494.328 238.556 488.878 234.212 488.592 229.866C481.163 226.664 476.488 221.176 477.494 215.999C478.785 209.358 488.934 205.744 500.163 207.927Z" fill="black" fill-opacity="0.28827"/>
<path d="M332.212 108.905C340.863 112.188 348.258 105.922 348.258 104.385C348.258 102.847 341.877 101.601 334.005 101.601C326.133 101.601 319.751 102.847 319.751 104.385C319.751 105.922 323.56 105.622 332.212 108.905Z" fill="black" fill-opacity="0.28827"/>
<path d="M318.31 102.788C320.259 107.369 327.647 101.788 329.245 103.866C330.844 105.944 330.034 107.712 333.64 108.146C337.247 108.579 337.602 104.626 341.149 104.409C344.697 104.191 346.798 105.001 348.034 101.283C349.27 97.566 343.555 96.0244 343.263 94.522C342.971 93.0195 343.083 89.1229 340.574 88.5393C338.064 87.9557 337.048 88.0301 331.32 91.4094C325.592 94.7887 316.361 98.2069 318.31 102.788Z" fill="url(#paint8_linear_231_9856)"/>
<path opacity="0.180315" d="M331.079 91.5484L332.144 90.9255C337.152 88.0228 338.189 87.9834 340.573 88.5378C341.126 88.6665 341.552 88.9562 341.883 89.3459C340.504 89.1847 339.006 89.4315 337.389 90.0859L337.133 90.1939C334.844 91.199 328.493 94.8324 318.079 101.094C318.64 97.3971 326.078 94.4527 331.079 91.5484V91.5484Z" fill="url(#paint9_linear_231_9856)"/>
<path d="M342.834 91.5399L342.847 91.5997C343.083 92.7123 343.133 93.8529 343.263 94.5207C343.308 94.7491 343.477 94.9784 343.729 95.216C342.391 95.4083 341.544 95.8256 341.189 96.4675C340.03 98.5647 342.134 99.7102 341.657 102.095C341.538 102.691 341.253 103.473 340.804 104.442C337.574 104.885 337.125 108.563 333.64 108.144C330.964 107.823 330.72 106.766 330.119 105.394C331.483 104.949 332.454 104.408 333.031 103.772C334.695 101.938 332.947 95.3361 336.421 93.1672C338.035 92.1592 340.173 91.6167 342.834 91.5399Z" fill="black" fill-opacity="0.28827"/>
<path opacity="0.150902" d="M455.013 135.872C459.02 138.279 463.14 138.777 464.217 136.985C465.294 135.193 462.047 133.241 458.913 129.381C455.78 125.521 450.786 126.475 449.709 128.268C448.632 130.06 451.007 133.464 455.013 135.872Z" fill="url(#paint10_linear_231_9856)"/>
<path d="M454.325 137.017C458.331 139.424 462.452 139.923 463.529 138.13C464.606 136.338 461.428 134.27 458.225 130.526C455.022 126.783 450.098 127.621 449.021 129.413C447.944 131.205 450.319 134.61 454.325 137.017Z" fill="url(#paint11_linear_231_9856)"/>
<path opacity="0.129255" d="M196.594 171.403C234.882 171.403 202.18 209.563 245.036 209.563C297.353 209.563 268.619 246.581 306.17 243.787C343.721 240.993 334.857 288.966 361.901 277.345C388.945 265.724 426.65 279.51 446.589 328.985C456.559 353.724 424.439 428.432 343.016 436.308C261.593 444.184 208.293 542.519 152.6 510.048C27.4737 437.096 128.153 171.403 196.594 171.403Z" fill="url(#paint12_linear_231_9856)"/>
<path opacity="0.134673" d="M418.462 258.155C416.224 263.27 417.588 269.343 427.891 271.766C438.194 274.189 467.885 268.58 451.864 266.909C425.729 264.183 435.576 248.98 431.141 248.98C426.707 248.98 420.699 253.041 418.462 258.155Z" fill="url(#paint13_linear_231_9856)"/>
<path fill-rule="evenodd" clip-rule="evenodd" d="M174.322 246.709C212.936 238.579 198.36 279.199 205.515 286.676C230.861 313.161 270.485 251.835 297.639 286.676C324.793 321.518 375.772 297.39 397.002 316.87C432.767 349.686 407.544 384.554 305.054 419.273C257.832 435.269 229.233 475.785 189.717 484.132C88.8972 505.429 129.208 256.207 174.322 246.709Z" fill="#F2F49F" fill-opacity="0.0742188" stroke="#A75151" stroke-opacity="0.448836" stroke-width="1.29076"/>
<path fill-rule="evenodd" clip-rule="evenodd" d="M345.137 359.18C341.312 373.62 370.113 374.217 377.249 349.718C384.384 325.219 348.962 344.739 345.137 359.18Z" fill="#F2F49F" fill-opacity="0.0742188" stroke="#A75151" stroke-opacity="0.448836" stroke-width="1.29076"/>
<path fill-rule="evenodd" clip-rule="evenodd" d="M200.506 462.419C240.008 442.143 223.399 416.253 270.852 412.858C318.305 409.463 300.913 380.581 325.773 356.902C350.633 333.223 295.927 353.981 282.575 331.095C269.223 308.208 236.995 359.2 178.351 337.183C159.827 330.229 150.827 384.999 154.142 416.584C157.589 449.432 180.367 472.756 200.506 462.419Z" fill="#F2F49F" fill-opacity="0.0742188" stroke="#A75151" stroke-opacity="0.448836" stroke-width="1.29076"/>
<path opacity="0.0602679" d="M303.209 226.641C318.964 234.212 332.97 214.901 344.789 228.826C356.608 242.751 366.149 265.263 401.588 243.618C437.028 221.973 421.626 186.394 393.105 180.777C364.584 175.16 322.697 190.552 298.31 185.788C273.922 181.024 278.462 171.403 260.459 171.403C242.456 171.403 233.464 199.505 260.459 199.505C287.454 199.505 287.454 219.07 303.209 226.641Z" fill="url(#paint14_linear_231_9856)"/>
<path d="M367.476 232.482C374.179 232.482 379.613 230.239 379.613 227.471C379.613 224.704 374.179 222.46 367.476 222.46C360.772 222.46 355.338 224.704 355.338 227.471C355.338 230.239 360.772 232.482 367.476 232.482Z" fill="black" fill-opacity="0.28827"/>
<path d="M370.261 225.994C369.358 226.347 363.44 232.126 360.468 231.133C357.497 230.139 351.717 226.056 352.867 224.065C354.016 222.074 358.033 220.518 357.125 218.409C356.216 216.3 359.468 215.763 359.468 215.763C359.468 215.763 358.544 214.232 360.047 213.348C361.549 212.464 373.391 209.113 374.346 210.608C375.3 212.102 373.272 214.202 373.272 214.202C373.272 214.202 377.259 216.788 376.994 218.182C376.729 219.575 375.866 220.218 375.615 221.913C375.363 223.609 374.894 226.333 373.532 226.434C372.17 226.536 371.164 225.641 370.261 225.994Z" fill="url(#paint15_linear_231_9856)"/>
<path opacity="0.180315" d="M360.654 216.657C361.341 217.33 360.775 218.71 358.953 220.797C359.151 219.497 359.205 218.511 359.117 217.839C359.055 217.369 358.882 216.742 358.598 215.958C358.857 215.881 359.147 215.816 359.468 215.763C359.437 215.712 359.409 215.662 359.382 215.612C359.849 215.936 360.273 216.285 360.654 216.657Z" fill="url(#paint16_linear_231_9856)"/>
<path opacity="0.180315" d="M373.272 214.202C374.015 214.684 374.647 215.135 375.169 215.555L371.64 220.984C371.111 218.802 370.936 217.279 371.114 216.415C371.247 215.772 372.004 214.995 373.384 214.084L373.272 214.202V214.202Z" fill="url(#paint17_linear_231_9856)"/>
<path d="M360.468 231.133C358.863 230.595 356.437 229.156 354.728 227.633C356.784 227.487 360.716 228.162 361.725 228.327C363.151 228.559 363.976 225.528 365.009 224.669C365.596 224.181 367.312 224.639 370.158 226.044C368.983 226.709 363.345 232.095 360.468 231.133Z" fill="black" fill-opacity="0.28827"/>
</g>
<path opacity="0.338611" d="M239.05 269.805C253.337 269.805 264.918 260.674 264.918 249.41C264.918 238.145 253.337 229.014 239.05 229.014C224.764 229.014 213.183 238.145 213.183 249.41C213.183 260.674 224.764 269.805 239.05 269.805Z" fill="black" fill-opacity="0.28827"/>
<path d="M271.591 36.4109L297.204 39.8008C307.499 41.1819 315.284 49.7196 315.66 60.015L317.167 93.6633C317.418 100.192 314.656 106.595 309.634 110.864L298.083 120.657L269.959 116.263L271.591 36.4109Z" fill="#0F1E70"/>
<path d="M286.397 39.6136C293.832 41.3955 299.496 43.9004 303.391 47.1284C309.233 51.9704 311.915 56.7725 313.416 60.0148C314.917 63.2572 316.631 72.0066 312.713 77.6999L312.074 78.6364C308.538 83.8767 306.442 88.0412 307.206 94.0879L307.3 94.8105C307.772 98.3077 308.67 103.553 309.996 110.547L309.634 110.864L299.622 119.35L270.698 80.062L271.336 48.8042L286.397 39.6136Z" fill="black" fill-opacity="0.28827"/>
<path d="M253.276 121.695C257.545 143.165 260.558 156.222 262.567 160.742C265.58 167.522 281.4 208.174 282.655 208.927C283.283 209.303 284.287 209.303 284.539 209.555C284.915 209.806 284.915 210.685 284.664 210.81C284.539 211.061 273.615 220.854 272.611 223.114C271.607 225.249 272.234 231.024 277.884 230.271C283.534 229.518 284.162 225.249 286.799 223.993C289.435 222.738 296.968 219.599 296.968 217.213C296.968 214.828 293.83 208.927 294.457 208.173C295.085 207.42 295.336 207.546 295.336 204.658C295.336 201.77 294.081 180.956 292.072 175.557C290.063 170.159 289.31 169.28 288.682 166.267C288.305 164.258 287.803 148.187 287.301 118.054L253.276 121.695Z" fill="#5428C6"/>
<path d="M294.583 208.299C294.206 209.303 297.094 214.953 297.094 217.213C297.094 219.598 289.686 222.737 286.924 223.993C284.287 225.248 283.534 229.517 278.01 230.27C272.36 231.024 271.732 225.248 272.736 223.114C273.741 220.979 284.538 211.061 284.79 210.81C284.915 210.684 284.915 210.182 284.79 209.805C286.422 209.931 287.928 209.931 289.561 209.68C291.193 209.429 292.825 209.052 294.583 208.299Z" fill="#0F1E70"/>
<path d="M297.094 217.213C297.094 219.599 289.686 222.738 286.924 223.993C284.287 225.249 283.534 229.518 278.01 230.271C277.393 230.353 276.837 230.358 276.336 230.298L276.665 230.158C278.925 229.194 280.424 228.442 281.161 227.901C283.278 226.348 284.759 223.988 285.589 223.285C287.63 221.559 290.551 220.705 293.266 218.871C294.598 217.971 295.8 216.947 296.872 215.799C297.01 216.343 297.094 216.827 297.094 217.213Z" fill="#3D68B2"/>
<path d="M288.682 160.617C288.807 163.881 288.933 165.764 289.058 166.392C286.171 168.15 283.283 169.908 280.521 171.54C277.633 173.297 274.118 174.427 270.1 174.93C266.71 168.652 263.822 163.002 262.692 160.742C262.19 159.612 261.688 158.105 261.06 156.097C262.818 155.846 265.203 155.72 268.217 155.72C272.862 155.72 279.642 157.352 288.682 160.617Z" fill="#0F1E70"/>
<path d="M265.565 43.4413C263.556 42.8135 261.798 43.1902 260.166 44.8224C257.78 47.2079 248.364 71.0631 246.732 72.5697C245.099 74.0764 242.965 78.0941 242.337 80.2285C241.584 82.3629 226.198 103.527 226.198 107.544C226.198 110.181 226.656 112.37 232.055 114.505L257.663 89.7252L265.565 43.4413Z" fill="#0B1E8A"/>
<path d="M281.091 41.3711C295.278 43.7566 303.942 48.6532 307.206 55.8098C304.444 68.3651 303.063 79.0372 303.063 87.4493C303.063 100.256 307.08 109.923 306.202 112.434C305.323 115.071 301.054 117.08 301.054 119.465C301.054 121.851 303.063 123.985 303.063 131.393C303.063 138.675 289.126 163.786 289.126 170.189C289.126 176.592 290.131 182.87 289.126 189.524C288.122 196.179 282.095 209.236 281.216 213.254C280.337 217.272 280.965 218.904 279.584 219.783C278.705 220.285 278.203 220.787 278.078 220.913V234.221C278.078 235.226 273.934 240.248 272.051 242.382C270.168 244.517 260.374 251.924 255.352 248.534C250.33 245.144 256.482 239.118 260.249 235.226C264.016 231.334 265.773 230.706 265.773 224.428C265.773 221.038 265.773 219.657 265.773 220.536C264.267 219.155 263.388 218.025 263.388 216.895C263.388 215.263 263.137 176.718 264.392 169.185C265.271 164.162 267.782 151.23 271.925 130.389L257.612 127.25C256.608 94.8569 256.608 75.8983 257.612 70.6251C258.617 65.3518 260.877 56.312 264.016 43.38C268.41 40.7434 274.06 40.1156 281.091 41.3711Z" fill="#E3EFF9"/>
<path d="M281.091 41.3711C295.278 43.7566 303.942 48.6532 307.206 55.8098C304.444 68.3651 303.063 79.0372 303.063 87.4493C303.063 100.256 307.08 109.923 306.202 112.434C305.323 115.071 301.054 117.08 301.054 119.465C301.054 121.851 303.063 123.985 303.063 131.393C303.063 138.675 289.126 163.786 289.126 170.189C289.126 176.592 290.131 182.87 289.126 189.524C288.122 196.179 282.095 209.236 281.216 213.254C280.337 217.272 280.965 218.904 279.584 219.783C278.705 220.285 278.203 220.787 278.078 220.913V234.221C278.078 235.226 273.934 240.248 272.051 242.382C270.168 244.517 260.374 251.924 255.352 248.534C250.33 245.144 256.482 239.118 260.249 235.226C264.016 231.334 265.773 230.706 265.773 224.428C265.773 221.038 265.773 219.657 265.773 220.536C264.267 219.155 263.388 218.025 263.388 216.895C263.388 215.263 263.137 176.718 264.392 169.185C265.271 164.162 267.782 151.23 271.925 130.389L257.612 127.25C256.608 94.8569 255.245 75.4787 256.25 70.2054C257.254 64.9322 260.877 56.312 264.016 43.38C268.41 40.7434 274.06 40.1156 281.091 41.3711Z" fill="#457CFF"/>
<path d="M261.648 53.7422L261.307 55.4626C259.7 63.6551 258.665 70.0658 258.202 74.6944L257.864 78.3772C257.744 79.6374 257.614 80.9479 257.474 82.3088C263.309 85.8086 273.564 85.3255 277.786 83.0725C284.499 79.4904 290.253 72.648 295.047 62.5452L303.335 80.5417C303.153 82.9883 303.063 85.2929 303.063 87.449C303.063 95.6519 304.711 102.567 305.665 107.139L270.332 138.42L271.925 130.388V130.388L256.084 127.673C255.683 115.729 255.48 103.16 255.644 91.2588C253.377 83.3263 253.07 76.6359 254.722 71.1886C256.511 65.288 258.82 59.4725 261.648 53.7422Z" fill="black" fill-opacity="0.28827"/>
<path d="M270.698 138.42C270.698 138.42 282.458 127.532 289.059 126.417C295.659 125.302 303.049 126.874 303.049 126.874L300.433 117.993C300.433 117.993 294.392 117.751 288.042 119.43C281.692 121.11 270.963 130.42 270.963 130.42H265.565L270.698 138.42Z" fill="#0F1E70"/>
<path d="M278.203 220.662C278.078 220.787 277.952 220.913 277.952 221.038V234.222C277.952 235.226 273.809 240.248 271.925 242.383C270.042 244.517 260.249 251.925 255.227 248.535C250.205 245.145 256.357 239.118 260.123 235.226C263.89 231.334 265.648 230.706 265.648 224.428V220.536C267.154 221.038 268.912 221.29 270.795 221.29C272.93 221.29 275.441 221.038 278.203 220.662Z" fill="#0F1E70"/>
<path d="M277.952 232.938L277.952 234.221C277.952 235.225 273.809 240.247 271.925 242.382L271.723 242.6C269.425 244.976 260.089 251.816 255.227 248.534C254.452 248.011 253.943 247.425 253.65 246.794C255.639 247.852 257.391 248.291 258.909 248.112C261.606 247.794 267.693 244.962 270.477 241.862L271.136 241.118C272.766 239.258 275.038 236.531 277.952 232.938Z" fill="#3D68B2"/>
<path d="M289.503 167.804C289.252 168.808 289.126 169.687 289.126 170.315C289.126 172.073 289.252 173.705 289.252 175.337C281.719 178.225 276.069 179.48 272.302 179.355C269.163 179.229 266.401 178.727 263.89 177.848C264.016 173.83 264.267 170.691 264.518 168.934C264.769 167.302 265.271 164.79 265.899 161.275C268.912 161.024 271.925 160.898 275.19 161.275C279.208 161.652 283.979 163.786 289.503 167.804Z" fill="#0F1E70"/>
<path d="M270.079 139.242L293.111 117.962H269.833L263.89 130.108L270.079 139.242Z" fill="black" fill-opacity="0.28827"/>
<path d="M287.179 43.4461L279.938 56.1891C279.687 56.5658 279.185 56.8169 278.808 56.6913L273.912 55.8125C273.284 55.6869 272.907 55.1847 273.033 54.5569L274.355 43.1543C275.987 43.2799 277.366 45.0735 279.25 45.4502C281.384 46.0779 285.171 42.9439 287.179 43.4461Z" fill="#0B1E8A"/>
<path fill-rule="evenodd" clip-rule="evenodd" d="M285.527 44.4458L279.626 54.7412C279.375 55.1179 278.873 55.369 278.496 55.2434L273.6 54.3645C272.972 54.239 272.595 53.7368 272.721 53.109L273.976 42.3114C275.609 42.437 277.366 42.5625 279.25 42.9392C281.384 43.5669 283.519 43.9436 285.527 44.4458Z" fill="#BAC8FF"/>
<path d="M258.732 62.2364L256.129 71.5655C256.003 72.0678 256.129 72.4444 256.631 72.8211C258.421 73.7 259.577 74.9591 265.441 76.5257C269.801 77.6903 277.8 78.5203 281.618 78.8696C282.877 78.9847 284.04 78.2155 284.446 77.0182L287.317 68.5471C287.596 67.7231 287.055 66.8485 286.193 66.7303C282.525 66.2272 273.818 65.014 270.676 64.4092C264.68 63.2551 262.048 61.4044 259.988 61.3575C259.36 61.3575 258.858 61.7342 258.732 62.2364Z" fill="#E7F0F8"/>
<path d="M251.685 74.8021L278.93 79.6987C280.06 79.9498 280.814 80.8287 280.814 81.9587V111.84C280.814 112.468 280.563 113.096 280.06 113.598L260.223 130.171C259.721 130.673 258.967 130.799 258.34 130.673L228.207 124.145C227.202 123.894 226.449 123.015 226.449 122.01V91.6263C226.449 90.873 226.826 90.1196 227.453 89.743L250.179 75.3043C250.555 74.8021 251.058 74.6766 251.685 74.8021Z" fill="#D0D4FF"/>
<path d="M279.935 80.2012C280.437 80.5778 280.813 81.2056 280.813 81.9589V111.841C280.813 112.468 280.562 113.096 280.06 113.598L260.223 130.171C259.972 130.423 259.721 130.548 259.344 130.674V98.6575C259.344 97.7787 259.721 97.0253 260.348 96.5231L279.935 80.2012Z" fill="#3D68B2"/>
<path d="M259.218 130.548C258.842 130.674 258.465 130.674 258.088 130.548L227.956 124.019C226.951 123.768 226.198 122.889 226.198 121.885V91.5011C226.198 91.1244 226.323 90.6222 226.575 90.3711L257.963 97.0254C258.716 97.151 259.344 97.9043 259.344 98.6576V130.548H259.218Z" fill="#F8FCFF"/>
<path d="M303.105 51.3517C309.759 49.7195 313.651 65.1626 310.136 71.9425C306.62 78.7223 296.576 99.062 295.195 101.196C293.688 103.331 277.869 118.648 275.232 119.778C272.595 120.908 271.214 119.527 270.587 120.281C269.959 121.034 268.829 121.787 268.829 123.168C268.829 124.549 269.582 124.8 269.206 125.93C268.829 127.06 266.569 134.217 265.439 135.598C264.309 136.979 254.014 140.871 251.879 138.486C249.745 136.1 255.771 125.805 255.269 125.303C254.641 124.675 253.762 127.06 251.628 127.563C249.494 128.065 248.866 126.558 249.243 126.182C249.619 125.805 253.386 122.666 254.139 120.908C255.018 119.151 259.161 117.393 260.417 117.393C261.672 117.393 263.179 116.012 263.179 115.007C263.179 114.003 262.551 112.371 263.179 111.492C263.807 110.613 278.496 91.2777 280.505 91.2777C282.389 91.2777 282.765 89.5199 282.765 88.39C282.64 87.5111 293.437 53.7372 303.105 51.3517Z" fill="#0B1E8A"/>
<path d="M270.963 120.155C270.838 120.155 270.712 120.28 270.587 120.28C269.959 120.908 268.829 121.787 268.829 123.168C268.829 124.549 269.582 124.8 269.206 125.93C268.829 127.06 266.569 134.217 265.439 135.598C264.309 136.979 254.014 140.871 251.879 138.486C249.745 136.1 255.771 125.805 255.269 125.303C254.641 124.675 253.762 127.06 251.628 127.563C249.494 128.065 248.866 126.558 249.243 126.181C249.619 125.805 253.386 122.666 254.139 120.908C255.018 119.15 259.161 117.393 260.417 117.393C261.672 117.393 263.179 116.012 263.179 115.007C263.179 114.882 263.179 114.631 263.179 114.505C264.434 115.886 265.564 116.891 266.443 117.518C267.322 118.397 268.829 119.276 270.963 120.155Z" fill="#0F1E70"/>
<path d="M305.09 71.189C307.864 71.189 310.112 68.4346 310.112 65.0369C310.112 61.6392 307.864 58.8848 305.09 58.8848C302.316 58.8848 300.068 61.6392 300.068 65.0369C300.068 68.4346 302.316 71.189 305.09 71.189Z" fill="#0F1E70"/>
<path d="M306.722 71.1893C309.496 71.1893 311.744 68.4349 311.744 65.0371C311.744 61.6394 309.496 58.885 306.722 58.885C303.949 58.885 301.7 61.6394 301.7 65.0371C301.7 68.4349 303.949 71.1893 306.722 71.1893Z" fill="#E7F0F8"/>
<path d="M277.743 45.7019C280.254 46.3297 284.146 45.5763 289.043 43.4419C288.541 41.9353 288.29 40.4287 288.29 38.6709C288.29 36.0343 289.922 30.1333 290.801 26.8689C291.68 23.6045 291.68 15.8202 287.913 13.058C284.146 10.1703 275.923 9.55877 271.314 11.1217C265.603 13.058 267.043 15.3919 266.697 20.4892C266.351 25.5865 267.171 38.3013 268.805 39.6138C270.439 40.9263 274.799 41.3983 274.171 41.7749C274.924 43.2816 275.232 45.0741 277.743 45.7019Z" fill="#FFA877"/>
<path d="M281.41 45.7898L281.176 45.8201C279.847 45.9794 278.696 45.94 277.743 45.7018C275.332 45.0992 274.952 43.4231 274.259 41.957L274.171 41.7749C275.957 42.5185 278.305 42.4043 281.216 41.4322L281.656 41.2799C284.477 40.2741 284.395 41.7774 281.41 45.7898Z" fill="black" fill-opacity="0.28827"/>
<path d="M274.753 9.49769C279.201 9.49769 286.531 8.90768 290.045 11.6652C293.559 14.4228 293.559 21.8562 292.739 24.8536C292.153 27.1316 289.225 32.0472 287.819 35.5242L287.702 35.6441C289.576 26.8918 289.576 21.8562 287.702 20.7772C284.891 19.0987 284.071 26.2923 283.017 26.2923C281.962 26.2923 283.602 19.5783 281.611 18.4992C280.773 18.045 277.931 17.6902 274.417 18.4992C272.121 19.0276 265.564 18.4992 265.564 18.4992C265.564 18.4992 266.619 9.49769 274.753 9.49769Z" fill="#0D134E"/>
<path d="M224.027 105.053C223.225 107.03 222.291 112.557 223.907 115.922C225.523 119.287 227.619 121.213 229.985 122.101C231.95 122.778 235.604 119.111 234.928 116.279C234.186 112.822 228.311 109.778 227.72 108.957C227.129 108.135 226.274 107.215 227.208 106.486C228.851 105.303 230.52 104.37 230.389 103.121C230.166 100.999 224.718 103.213 224.027 105.053Z" fill="#0F1E70"/>
<path d="M303.216 24.4829C303.216 37.5802 292.598 48.1976 279.501 48.1976C266.404 48.1976 255.786 37.5802 255.786 24.4829C255.786 11.3857 266.404 0.768307 279.501 0.768307C292.598 0.768307 303.216 11.3857 303.216 24.4829Z" fill="#0B1E8A" fill-opacity="0.19" stroke="#ECEAFE" stroke-width="1.53661"/>
<path opacity="0.504464" fill-rule="evenodd" clip-rule="evenodd" d="M264.222 16.5535C265.17 14.3195 264.904 12.0692 263.627 11.5273C262.351 10.9854 260.547 12.3572 259.599 14.5912C258.651 16.8252 258.917 19.0755 260.193 19.6174C261.47 20.1593 263.273 18.7875 264.222 16.5535Z" fill="white"/>
<path d="M35.0918 367.308C51.5762 367.308 64.9394 358.176 64.9394 346.912C64.9394 335.648 51.5762 326.516 35.0918 326.516C18.6074 326.516 5.2442 335.648 5.2442 346.912C5.2442 358.176 18.6074 367.308 35.0918 367.308Z" fill="black" fill-opacity="0.180698"/>
<path d="M57.9072 231.632L54.5947 225.458C51.4328 219.737 44.9584 216.725 38.484 218.081L18.0069 222.447C11.8336 223.802 7.16605 228.921 6.41321 235.245L0.0893835 290.503C-0.663453 297.279 3.40186 303.753 9.72569 306.162L33.967 314.895L57.9072 231.632Z" fill="#0F1E70"/>
<path d="M46.1359 272.573L42.9348 218.207L41.3423 218.79C25.6484 224.575 16.8996 229.132 15.096 232.461L15.0116 232.626C12.5841 237.704 8.37442 237.122 7.19195 246.393L5.50155 260.899C3.93151 274.655 2.10652 292.829 3.2664 298.744C3.50449 299.959 3.82393 301.215 4.22471 302.513C5.74196 304.092 7.6071 305.356 9.72574 306.163L20.2655 309.96L41.4563 288.85L46.1359 272.573Z" fill="black" fill-opacity="0.28827"/>
<path d="M39.9897 222.598C36.5266 224.254 29.2994 228.62 18.4585 235.697C22.9756 331.759 25.3846 381.296 25.9869 384.156C26.7397 388.523 15.5978 440.318 17.1034 444.233C18.6091 447.997 21.3193 450.858 23.1261 451.912C24.9329 452.966 21.0182 462.15 21.0182 463.957C21.0182 465.764 19.5125 476.153 20.1148 479.465C20.7171 482.778 21.0182 488.198 27.9443 488.198C34.8704 488.198 36.2255 483.079 35.4726 477.96C34.7198 472.69 34.4187 472.539 35.4726 469.528C36.5266 466.517 35.6232 465.914 34.5692 461.397C33.3647 456.73 34.1175 450.858 35.4726 449.954C36.8278 449.051 42.0976 445.437 43.001 441.974C43.9044 438.511 53.089 395.449 53.089 389.276C53.089 385.06 53.8419 356.508 53.8419 356.508C53.8419 356.508 58.8106 386.565 58.8106 388.824C58.8106 392.136 58.3589 417.733 57.0038 421.648C55.7992 425.713 55.6487 431.284 57.0038 432.639C57.9072 433.542 58.5094 434.145 58.66 434.596C57.4555 442.727 57.1543 447.395 57.7566 448.75C58.66 450.707 65.1344 450.707 68.5975 455.525C72.0605 460.343 75.2224 462.602 80.4923 462.602C85.7621 462.602 90.5803 461.699 86.6655 456.128C82.9013 450.557 72.9639 442.275 72.9639 438.812V431.434C75.6741 429.477 77.0292 427.67 77.0292 426.014C77.0292 423.454 83.2025 397.557 83.9553 392.889C84.7082 388.222 84.8587 380.392 83.9553 373.767C83.0519 367.142 80.0406 323.026 77.9326 317.455C75.8247 311.884 74.6201 311.432 74.6201 309.174C74.6201 306.915 74.4696 304.205 75.2224 303.151C75.9753 302.097 77.1798 300.893 77.4809 299.236C77.7821 297.58 81.5462 280.114 80.3417 263.401C79.1372 246.688 70.5548 227.115 67.2423 225.157C64.9838 223.802 61.8219 223.049 57.606 222.748C49.4754 220.941 43.4527 220.941 39.9897 222.598Z" fill="#457CFF"/>
<path d="M79.4383 252.583C79.4383 252.583 58.7253 268.098 50.8305 266.563C42.9357 265.029 33.8917 249.549 33.8917 249.549L19.5393 289.374L26.6962 321.069C26.6962 321.069 32.4964 322.829 33.8917 317.357C35.2869 311.884 29.2628 290.234 33.8917 286.89C38.5205 283.545 42.1846 301.186 49.043 301.186C55.9015 301.186 77.5098 297.213 77.5098 297.213L81.8474 266.563L79.4383 252.583Z" fill="black" fill-opacity="0.28827"/>
<path d="M58.215 384.703C58.3656 386.811 58.6909 388.215 58.6909 388.667C58.6909 389.721 58.3898 392.739 58.6909 397.105C62.4551 398.008 65.7367 399.213 72.8134 397.105C76.5776 396.051 82.4497 393.19 84.7082 391.835C84.8588 388.071 85.3105 383.303 84.7082 379.389C84.5576 378.184 84.5576 375.159 83.6542 372.864C77.6315 374.369 70.5549 377.381 68.4469 378.585C66.1884 380.091 64.3883 381.24 58.215 384.703Z" fill="#0F1E70"/>
<path d="M23.8791 340.944C29.7513 341.395 35.2695 340.483 39.0336 341.838C43.2495 343.344 50.6935 346.617 54.1432 348.623C57.9074 346.277 63.3327 341.24 68.067 338.03C72.7668 334.844 74.6426 333.687 80.0846 331.484C79.2749 324.512 78.6856 319.111 77.9328 317.455C76.7283 314.293 75.9554 313.239 75.3531 312.035C69.9327 315.648 65.8874 318.961 63.3278 322.424C60.3164 326.339 57.6062 332.512 54.896 340.944C51.1318 334.319 46.6148 327.995 41.4955 322.424C36.6774 317.003 30.203 313.54 22.2229 312.035C23.1263 322.876 23.578 332.662 23.8791 340.944Z" fill="#0F1E70"/>
<path d="M21.0182 326.79C21.1688 326.94 21.1688 327.091 21.3194 327.392C22.6745 330.855 20.8677 331.156 20.2654 334.469C19.6631 337.932 21.8501 352.022 24.1086 354.281C24.1086 357.311 29.5571 359.478 30.4605 360.08C31.3639 360.682 34.2681 361.27 36.075 360.818C37.8818 360.366 32.7625 343.352 34.1176 342.298C35.3221 341.244 38.9357 345.611 40.592 346.514C42.2482 347.267 43.3022 344.707 41.3448 341.545C39.538 338.384 33.8263 329.048 32.6218 327.392C31.4172 325.736 33.8164 317.29 33.8164 315.633C33.8164 315.182 33.5153 314.142 33.8164 313.54C31.7085 313.54 29.7511 313.54 27.7938 313.841C25.9869 314.293 23.5779 325.585 21.0182 326.79Z" fill="black" fill-opacity="0.28827"/>
<path d="M58.66 434.295C58.8106 434.295 58.8106 434.295 58.66 434.295C57.4555 442.576 57.1543 447.244 57.7566 448.599C58.66 450.556 65.1344 450.556 68.5975 455.375C72.0605 460.193 75.2224 462.451 80.4923 462.451C85.7621 462.451 90.5803 461.548 86.6655 455.977C82.9013 450.406 72.9639 442.125 72.9639 438.662V431.434C70.4043 432.338 67.8446 433.091 65.4355 433.542C63.177 433.994 60.9185 434.295 58.66 434.295Z" fill="#0F1E70"/>
<path d="M57.7569 448.599C58.6603 450.557 65.1347 450.557 68.5977 455.375C72.0607 460.193 75.2227 462.451 80.4925 462.451L81.3053 462.444C84.1295 462.387 86.6942 462.007 87.6736 460.701C81.8177 460.908 77.8672 460.513 75.821 459.517C72.2996 457.802 69.4288 453.354 67.0954 451.008C65.8223 449.728 62.6321 448.588 57.5247 447.588C57.5743 448.026 57.6518 448.363 57.7569 448.599Z" fill="#3D68B2"/>
<path d="M20.1149 482.477C20.7172 485.789 22.8257 490.281 27.9577 490.281C32.6929 490.281 36.0597 486.638 35.5773 481.815C35.163 485.37 33.0928 488.198 27.9444 488.198C21.0183 488.198 20.7172 482.778 20.1149 479.465C20.0702 479.219 20.0371 478.934 20.0142 478.617C19.9436 480.208 19.9544 481.594 20.1149 482.477Z" fill="#3D68B2"/>
<path d="M23.2768 452.062C24.6319 453.568 21.0183 462.15 21.0183 463.957C21.0183 465.764 19.5126 476.153 20.1149 479.465C20.7172 482.778 21.0183 488.198 27.9444 488.198C34.8705 488.198 36.2256 483.079 35.4728 477.96C34.7199 472.69 34.4188 472.539 35.4728 469.528C36.5267 466.516 35.6233 465.914 34.5693 461.397C33.6659 457.633 33.9671 453.116 34.7199 451.008C33.8165 451.46 32.3108 451.911 30.3535 452.363C28.095 452.664 25.6859 452.664 23.2768 452.062Z" fill="#0F1E70"/>
<path d="M25.9869 384.457C26.1375 386.113 25.2341 391.835 24.0296 398.912C29.2994 400.719 33.967 401.622 37.8818 401.622C42.2482 401.622 46.7652 401.02 51.5834 399.966C52.4868 394.696 53.0891 390.631 53.0891 389.125C53.0891 388.221 53.0891 386.866 53.0891 385.21C48.1203 384.307 43.6033 383.855 39.6886 383.855C36.2255 383.855 31.7085 384.006 25.9869 384.457Z" fill="#0F1E70"/>
<path d="M65.2851 224.404C69.6516 225.458 74.018 226.512 75.6743 227.415C78.0833 228.771 102.325 261.293 103.83 267.316C105.336 273.489 104.131 279.963 99.3133 282.975C94.4952 285.986 75.072 294.568 71.7595 293.213C68.447 292.009 69.3504 291.407 66.7908 292.159C64.2311 292.912 60.9187 296.827 57.0039 298.333C50.8306 301.095 41.7966 289.148 45.8619 286.137C47.0665 284.33 51.3243 283.276 52.5288 282.975C55.3896 282.222 57.0039 282.975 57.7567 282.975C59.5636 282.975 61.8221 282.222 61.8221 281.168C61.8221 280.114 61.8221 278.608 63.1772 277.705C64.5323 276.952 80.643 266.262 80.643 265.509C80.643 264.756 79.0349 254.588 75.7224 245.404C71.3559 232.907 67.6942 225.759 65.2851 224.404Z" fill="#0B1E8A"/>
<path d="M58.3589 283.185C58.3589 283.185 54.4562 280.86 53.115 280.86C51.7739 280.86 45.9924 280.734 45.5939 281.711C45.1954 282.689 48.0719 286.236 48.0719 286.236L58.3589 283.185Z" fill="#3D68B2"/>
<path d="M61.2754 282.303L61.053 282.179C60.2355 282.671 58.9049 282.975 57.7567 282.975C57.0397 282.975 55.5413 282.292 52.929 282.877L52.5287 282.975C51.3242 283.276 47.0664 284.33 45.8618 286.137C41.8493 289.109 50.5981 300.786 56.7619 298.433L57.0038 298.333C60.9186 296.827 64.2311 292.912 66.7907 292.16L67.3056 292.014C67.6151 291.932 67.861 291.878 68.0684 291.85L67.8987 291.294C67.3874 289.658 66.8138 288.19 66.1776 286.89C65.3716 285.242 63.7375 283.713 61.2754 282.303L61.053 282.179L61.2754 282.303Z" fill="#0F1E70"/>
<path fill-rule="evenodd" clip-rule="evenodd" d="M59.4129 281.921C62.2737 281.319 64.9839 281.319 67.6941 281.921C70.4043 282.523 72.6628 284.18 74.4696 286.89L95.2479 276.952C95.2479 275.447 94.9468 274.393 94.0434 273.64C93.3696 269.569 85.9128 266.563 81.8474 266.563C77.7821 266.563 62.876 273.188 61.0691 274.543C60.0152 275.597 59.4129 278.006 59.4129 281.921Z" fill="#BAC8FF"/>
<path d="M77.228 280.854L93.941 273.486C94.6938 274.239 95.44 274.937 95.2479 276.952L74.4696 286.89C72.6628 284.179 70.4043 282.932 67.6941 282.179C64.9839 281.576 62.2737 281.576 59.4129 282.179C59.4129 278.415 59.9127 277.1 61.1173 276.046C71.2829 274.327 75.7223 281.005 77.228 280.854Z" fill="#3D68B2"/>
<path d="M13.0382 238.558C15.2967 235.998 18.6092 235.245 21.3194 235.245C24.0296 235.245 36.3762 239.913 34.7199 254.518C33.0637 269.274 28.8478 275.899 28.8478 281.921C28.8478 287.944 30.0523 291.708 30.9557 296.225C31.8591 300.742 32.7625 314.745 31.8591 316.853C30.9557 318.961 28.9984 321.37 28.9984 322.876C28.9984 324.532 28.3961 326.64 29.6006 328.296C30.8052 329.952 35.021 333.867 36.9784 337.179C38.7852 340.341 37.8818 343.052 36.2256 342.148C34.5693 341.395 30.9557 336.878 29.7512 337.932C28.5467 338.986 32.0097 356 30.2029 356.452C28.3961 356.904 27.7938 354.495 26.8904 353.892C25.987 353.29 20.1149 352.989 18.0069 350.881C15.7484 348.623 15.2967 335.071 15.899 331.608C16.5013 328.145 18.3081 327.995 16.953 324.532C15.5979 321.069 12.5865 321.069 11.8337 318.359C11.0809 315.648 5.3593 292.009 6.11213 286.739C7.01554 281.47 8.37064 265.66 8.37064 262.347C8.22007 258.884 10.7797 241.117 13.0382 238.558Z" fill="#0B1E8A"/>
<path d="M16.5014 323.779C16.652 323.929 16.652 324.08 16.8026 324.381C18.1577 327.844 16.3509 328.145 15.7486 331.458C15.1463 334.921 15.598 348.472 17.8565 350.73C19.9645 352.989 26.5459 354.961 27.4493 355.563C28.3527 356.165 29.7514 358.259 31.5582 357.807C33.365 357.355 29.7514 340.341 31.1065 339.287C32.311 338.233 35.9246 342.6 37.5809 343.503C39.2371 344.256 40.2911 341.696 38.3337 338.534C36.5269 335.372 30.5891 329.805 29.6379 328.168C28.6867 326.531 29.1862 324.295 29.1862 322.639C29.1862 322.187 29.3367 321.585 29.6379 320.983C27.5299 320.983 25.2343 321.069 23.277 321.37C21.4702 321.821 19.0611 322.574 16.5014 323.779Z" fill="#0F1E70"/>
<path d="M17.6674 244.18C21.1467 244.485 23.6382 248.492 23.2323 253.131C22.8264 257.77 19.6769 261.284 16.1977 260.98C12.7184 260.675 10.2269 256.668 10.6328 252.029C11.0387 247.39 14.1882 243.876 17.6674 244.18Z" fill="#0F1E70"/>
<path d="M15.7467 244.012C19.2259 244.316 21.7174 248.324 21.3115 252.963C20.9057 257.602 17.7561 261.116 14.2769 260.811C10.7976 260.507 8.30614 256.499 8.71201 251.86C9.11788 247.221 12.2674 243.707 15.7467 244.012Z" fill="#F8FCFF"/>
<path d="M74.9213 248.043C74.7707 247.291 74.1684 246.839 73.4156 246.989L37.8817 252.41C37.1289 252.56 36.6772 253.163 36.8277 253.916L39.0863 270.026V270.026C39.2368 270.779 39.8391 271.231 40.5919 271.08L76.4269 265.208C77.1798 265.057 77.6315 264.455 77.4809 263.702L74.9213 248.043Z" fill="#F8FCFF"/>
<path d="M90.1373 272.371L90.11 272.38L90.0844 272.393C89.957 272.456 89.8767 272.481 89.8232 272.491C89.7802 272.5 89.7448 272.502 89.6933 272.502C89.0803 272.365 88.7349 271.912 88.8261 271.456L88.8287 271.443L88.8304 271.43L95.1513 222.067C95.2839 221.553 95.5141 221.265 95.9203 221.163L95.9302 221.161L95.9399 221.158L128.257 211.237H128.257H128.258H128.259H128.26H128.261H128.262H128.263H128.264H128.264H128.265H128.266H128.267H128.268H128.269H128.27H128.271H128.271H128.272H128.273H128.274H128.275H128.276H128.277H128.278H128.279H128.279H128.28H128.281H128.282H128.283H128.284H128.285H128.286H128.286H128.287H128.288H128.289H128.29H128.291H128.292H128.293H128.294H128.294H128.295H128.296H128.297H128.298H128.299H128.3H128.301H128.301H128.302H128.303H128.304H128.305H128.306H128.307H128.308H128.309H128.309H128.31H128.311H128.312H128.313H128.314H128.315H128.316H128.316H128.317H128.318H128.319H128.32H128.321H128.322H128.323H128.324H128.324H128.325H128.326H128.327H128.328H128.329H128.33H128.331H128.331H128.332H128.333H128.334H128.335H128.336H128.337H128.338H128.339H128.339H128.34H128.341H128.342H128.343H128.344H128.345H128.346H128.346H128.347H128.348H128.349H128.35H128.351H128.352H128.353H128.354H128.354H128.355H128.356H128.357H128.358H128.359H128.36H128.361H128.361H128.362H128.363H128.364H128.365H128.366H128.367H128.368H128.369H128.369H128.37H128.371H128.372H128.373H128.374H128.375H128.376H128.376H128.377H128.378H128.379H128.38H128.381H128.382H128.383H128.384H128.384H128.385H128.386H128.387H128.388H128.389H128.39H128.391H128.391H128.392H128.393H128.394H128.395H128.396H128.397H128.398H128.399H128.399H128.4H128.401H128.402H128.403H128.404H128.405H128.406H128.406H128.407H128.408H128.409H128.41H128.411H128.412H128.413H128.414H128.414H128.415H128.416H128.417H128.418H128.419H128.42H128.421H128.421H128.422H128.423H128.424H128.425H128.426H128.427H128.428H128.429H128.429H128.43H128.431H128.432H128.433H128.434H128.435H128.436H128.436H128.437H128.438H128.439H128.44H128.441H128.442H128.443H128.444H128.444H128.445H128.446H128.447H128.448H128.449H128.45H128.451H128.451H128.452H128.453H128.454H128.455H128.456H128.457H128.458H128.459H128.459H128.46H128.461H128.462H128.463H128.464H128.465H128.466H128.466H128.467H128.468H128.469H128.47H128.471H128.472H128.473H128.474H128.474H128.475H128.476H128.477H128.478H128.479H128.48H128.481H128.481H128.482H128.483H128.484H128.485H128.486H128.487H128.488H128.489H128.489H128.49H128.491H128.492H128.493H128.494H128.495H128.496H128.496H128.497H128.498H128.499H128.5H128.501H128.502H128.503H128.504H128.504H128.505H128.506H128.507H128.508H128.509H128.51H128.511H128.511H128.512H128.513H128.514H128.515H128.516H128.517H128.518H128.519H128.519H128.52H128.521H128.522H128.523H128.524H128.525H128.526H128.526H128.527H128.528H128.529H128.53H128.531H128.532H128.533H128.534H128.534H128.535H128.536H128.537H128.538H128.539H128.54H128.541H128.541H128.542H128.543H128.544H128.545H128.546H128.547H128.548H128.549H128.549H128.55H128.551H128.552H128.553H128.554H128.555H128.556H128.556H128.557H128.558H128.559H128.56H128.561H128.562H128.563H128.564H128.564H128.565H128.566H128.567H128.568H128.569H128.57H128.571H128.571H128.572H128.573H128.574H128.575H128.576H128.577H128.578H128.579H128.579H128.58H128.581H128.582H128.583H128.584H128.585H128.586H128.586H128.587H128.588H128.589H128.59H128.591H128.592H128.593H128.594H128.594H128.595H128.596H128.597H128.598H128.599H128.6H128.601H128.601H128.602H128.603H128.604H128.605H128.606H128.607H128.608H128.609H128.609H128.61H128.611C129.224 211.374 129.57 211.828 129.479 212.283L129.476 212.296L129.474 212.309L123.151 261.093L123.147 261.118V261.143C123.147 261.242 123.094 261.381 122.964 261.525C122.836 261.667 122.666 261.779 122.508 261.832C122.507 261.832 122.507 261.832 122.507 261.832L90.1373 272.371Z" fill="#FFAF8A" fill-opacity="0.47" stroke="#FF8C70" stroke-width="0.768307"/>
<path d="M56.6249 222.232L40.7557 222.141L38.6565 223.232L49.383 237.053C49.6841 237.505 50.1358 237.806 50.7381 237.806L58.9611 236.45H59.1117C59.8645 236.3 60.3162 235.547 60.0151 234.794L56.6249 222.232Z" fill="#0B1E8A"/>
<path fill-rule="evenodd" clip-rule="evenodd" d="M57.1543 222.597H40.1402L50.5294 235.546C50.8305 235.998 51.2822 236.299 51.8845 236.299L58.9611 234.944H59.1117C59.8645 234.793 60.3162 234.04 60.0151 233.288L57.1543 222.597Z" fill="#BAC8FF"/>
<path d="M50.8304 224.404C47.2168 224.404 43.7538 223.802 39.9896 222.597C40.4413 217.026 40.4413 212.509 39.9896 209.046C39.3873 203.927 38.9356 185.407 46.3134 183.45C53.6912 181.342 62.8758 184.353 66.3389 190.978C71.4582 200.615 64.5321 219.586 61.5207 220.188C60.4668 220.489 58.9611 220.339 56.8531 220.038V223.651C56.4014 224.254 54.4441 224.404 50.8304 224.404Z" fill="#FFA877"/>
<path d="M49.383 218.489C50.6427 220.412 52.1382 221.629 53.8694 222.14C54.9578 222.462 55.953 222.607 56.855 222.577L56.8532 220.038L57.1827 220.084V220.084L57.1543 220.035C55.7857 220.038 54.5941 219.939 53.5797 219.737C52.5652 219.535 51.1663 219.119 49.383 218.489Z" fill="black" fill-opacity="0.28827"/>
<path d="M73.1146 188.871C74.1686 190.979 73.2652 199.11 68.2965 199.11C63.1772 199.11 56.2511 193.99 53.9926 193.99C51.8846 193.99 52.3363 201.82 50.8306 202.271C49.325 202.874 51.4329 197.905 49.0238 197.002C46.6148 196.098 45.2597 197.453 45.2597 198.206C45.2597 198.959 44.6574 204.078 42.7 205.283C41.3449 206.036 40.4415 206.788 39.9898 207.692C38.183 205.735 37.129 203.627 37.129 201.368C37.129 197.905 37.129 190.377 38.3336 188.419C39.237 187.064 40.8932 185.558 43.6034 184.053C44.6574 180.439 46.3136 178.783 48.271 178.783C51.4329 178.783 55.4982 181.493 57.1545 181.493C58.8107 181.493 64.8334 181.192 66.6402 182.848C68.447 184.655 66.7908 187.516 67.5436 187.968C68.2965 188.419 72.0606 186.763 73.1146 188.871Z" fill="#0B1E8A"/>
<path d="M22.8405 200.464C22.8405 216.754 36.0462 229.96 52.3363 229.96C68.6263 229.96 81.832 216.754 81.832 200.464C81.832 184.174 68.6263 170.969 52.3363 170.969C36.0462 170.969 22.8405 184.174 22.8405 200.464Z" fill="#0B1E8A" fill-opacity="0.19" stroke="#ECEAFE" stroke-width="1.53661"/>
<path opacity="0.504464" fill-rule="evenodd" clip-rule="evenodd" d="M33.5961 190.77C34.7333 188.091 34.4141 185.392 32.8832 184.742C31.3523 184.092 29.1894 185.737 28.0522 188.416C26.915 191.096 27.2341 193.794 28.765 194.444C30.2959 195.094 32.4589 193.449 33.5961 190.77Z" fill="white"/>
<defs>
<filter id="filter0_d_231_9856" x="2.08775" y="29.5608" width="577.018" height="577.018" filterUnits="userSpaceOnUse" color-interpolation-filters="sRGB">
<feFlood flood-opacity="0" result="BackgroundImageFix"/>
<feColorMatrix in="SourceAlpha" type="matrix" values="0 0 0 0 0 0 0 0 0 0 0 0 0 0 0 0 0 0 127 0" result="hardAlpha"/>
<feOffset dy="14.5263"/>
<feGaussianBlur stdDeviation="14.5263"/>
<feColorMatrix type="matrix" values="0 0 0 0 0.976471 0 0 0 0 0.521569 0 0 0 0 0 0 0 0 0.29 0"/>
<feBlend mode="normal" in2="BackgroundImageFix" result="effect1_dropShadow_231_9856"/>
<feBlend mode="normal" in="SourceGraphic" in2="effect1_dropShadow_231_9856" result="shape"/>
</filter>
<linearGradient id="paint0_linear_231_9856" x1="619.574" y1="40.6929" x2="40.9744" y2="40.6929" gradientUnits="userSpaceOnUse">
<stop stop-color="#431818"/>
<stop offset="1" stop-color="#D13333"/>
</linearGradient>
<linearGradient id="paint1_linear_231_9856" x1="507.603" y1="384.064" x2="-22.9349" y2="384.064" gradientUnits="userSpaceOnUse">
<stop stop-color="#3C003B"/>
<stop offset="1" stop-color="#3E00FF"/>
</linearGradient>
<linearGradient id="paint2_linear_231_9856" x1="498.603" y1="551.233" x2="485.47" y2="466.138" gradientUnits="userSpaceOnUse">
<stop stop-color="#FF3F5D"/>
<stop offset="1" stop-color="#FF3F87" stop-opacity="0.179223"/>
</linearGradient>
<linearGradient id="paint3_linear_231_9856" x1="291.982" y1="199.587" x2="352.098" y2="81.812" gradientUnits="userSpaceOnUse">
<stop stop-color="#FFD73F"/>
<stop offset="1" stop-color="#FF3F87" stop-opacity="0.179223"/>
</linearGradient>
<linearGradient id="paint4_linear_231_9856" x1="237.138" y1="51.7794" x2="165.928" y2="248.457" gradientUnits="userSpaceOnUse">
<stop stop-color="#3C003B"/>
<stop offset="1" stop-color="#3E00FF"/>
</linearGradient>
<linearGradient id="paint5_linear_231_9856" x1="345.087" y1="60.3207" x2="42.3249" y2="60.3207" gradientUnits="userSpaceOnUse">
<stop stop-color="#5A168D" stop-opacity="0.01"/>
<stop offset="1" stop-color="#FFDD32"/>
</linearGradient>
<linearGradient id="paint6_linear_231_9856" x1="602.18" y1="177.203" x2="225.698" y2="-118.075" gradientUnits="userSpaceOnUse">
<stop stop-color="#3B004E"/>
<stop offset="1" stop-color="#FFA7A7"/>
</linearGradient>
<linearGradient id="paint7_linear_231_9856" x1="543.809" y1="284.434" x2="462.089" y2="278.691" gradientUnits="userSpaceOnUse">
<stop stop-color="#70212C"/>
<stop offset="1" stop-color="#732323"/>
</linearGradient>
<linearGradient id="paint8_linear_231_9856" x1="355.98" y1="89.3002" x2="326.003" y2="76.4029" gradientUnits="userSpaceOnUse">
<stop stop-color="#49004A"/>
<stop offset="1" stop-color="#D13333"/>
</linearGradient>
<linearGradient id="paint9_linear_231_9856" x1="348.5" y1="91.2101" x2="342.128" y2="78.8026" gradientUnits="userSpaceOnUse">
<stop stop-color="#D13333"/>
<stop offset="1" stop-color="white"/>
</linearGradient>
<linearGradient id="paint10_linear_231_9856" x1="449.325" y1="123.696" x2="438.49" y2="133.32" gradientUnits="userSpaceOnUse">
<stop stop-color="#3C0000"/>
<stop offset="1" stop-color="#3B13B8"/>
</linearGradient>
<linearGradient id="paint11_linear_231_9856" x1="463.765" y1="135.17" x2="452.579" y2="122.834" gradientUnits="userSpaceOnUse">
<stop stop-color="#3C0000"/>
<stop offset="1" stop-color="#6A1159"/>
</linearGradient>
<linearGradient id="paint12_linear_231_9856" x1="380.968" y1="244.015" x2="80.8078" y2="154.864" gradientUnits="userSpaceOnUse">
<stop stop-color="#AB3438"/>
<stop offset="1" stop-color="#FFA7A7"/>
</linearGradient>
<linearGradient id="paint13_linear_231_9856" x1="434.322" y1="202.836" x2="310.917" y2="312.177" gradientUnits="userSpaceOnUse">
<stop stop-color="#AB3438"/>
<stop offset="1" stop-color="#FFA7A7"/>
</linearGradient>
<linearGradient id="paint14_linear_231_9856" x1="464.989" y1="216.478" x2="419.824" y2="99.2861" gradientUnits="userSpaceOnUse">
<stop stop-color="#AB3438"/>
<stop offset="1" stop-color="#FFA7A7"/>
</linearGradient>
<linearGradient id="paint15_linear_231_9856" x1="383.621" y1="222.657" x2="367.423" y2="204.286" gradientUnits="userSpaceOnUse">
<stop stop-color="#49004A"/>
<stop offset="1" stop-color="#D13333"/>
</linearGradient>
<linearGradient id="paint16_linear_231_9856" x1="360.879" y1="219.492" x2="359.048" y2="215.158" gradientUnits="userSpaceOnUse">
<stop stop-color="#D13333"/>
<stop offset="1" stop-color="white"/>
</linearGradient>
<linearGradient id="paint17_linear_231_9856" x1="374.112" y1="218.894" x2="371.283" y2="214.284" gradientUnits="userSpaceOnUse">
<stop stop-color="#D13333"/>
<stop offset="1" stop-color="white"/>
</linearGradient>
</defs>
</svg>
