<svg width="56" height="56" viewBox="0 0 56 56" fill="none" xmlns="http://www.w3.org/2000/svg">
<g clip-path="url(#clip0_237_174)">
<path d="M50.1667 51.3334H5.83333C2.618 51.3334 0 48.7154 0 45.5V40.8334C0 40.1894 0.522667 39.6667 1.16667 39.6667H2.33333C4.907 39.6667 7 37.5737 7 35C7 32.4264 4.907 30.3334 2.33333 30.3334H1.16667C0.522667 30.3334 0 29.8107 0 29.1667V24.5C0 21.2847 2.618 18.6667 5.83333 18.6667H50.1667C53.382 18.6667 56 21.2847 56 24.5V29.1667C56 29.8107 55.4773 30.3334 54.8333 30.3334H53.6667C51.093 30.3334 49 32.4264 49 35C49 36.246 49.4853 37.4174 50.3673 38.2994C51.247 39.1814 52.4183 39.6667 53.6643 39.6667H54.831C55.475 39.6667 55.9977 40.1894 55.9977 40.8334V45.5C56 48.7154 53.382 51.3334 50.1667 51.3334ZM2.33333 42V45.5C2.33333 47.4297 3.90367 49 5.83333 49H50.1667C52.0963 49 53.6667 47.4297 53.6667 45.5V42H53.6643C51.7953 42 50.0383 41.272 48.7177 39.9514C47.3947 38.6284 46.6667 36.869 46.6667 35C46.6667 31.1407 49.8073 28 53.6667 28V24.5C53.6667 22.5704 52.0963 21 50.1667 21H5.83333C3.90367 21 2.33333 22.5704 2.33333 24.5V28C6.19267 28 9.33333 31.1407 9.33333 35C9.33333 38.8594 6.19267 42 2.33333 42Z" fill="#F5D15F"/>
<path d="M19.8333 23.3334C19.1893 23.3334 18.6666 22.8107 18.6666 22.1667V19.8334C18.6666 19.1894 19.1893 18.6667 19.8333 18.6667C20.4773 18.6667 21 19.1894 21 19.8334V22.1667C21 22.8107 20.4773 23.3334 19.8333 23.3334Z" fill="#F2E8C9"/>
<path d="M19.8333 43.0757C19.1893 43.0757 18.6666 42.553 18.6666 41.909V37.9633C18.6666 37.3193 19.1893 36.7967 19.8333 36.7967C20.4773 36.7967 21 37.317 21 37.9633V41.9113C21 42.5553 20.4773 43.0757 19.8333 43.0757ZM19.8333 33.2057C19.1893 33.2057 18.6666 32.683 18.6666 32.039V28.091C18.6666 27.447 19.1893 26.9243 19.8333 26.9243C20.4773 26.9243 21 27.447 21 28.091V32.039C21 32.683 20.4773 33.2057 19.8333 33.2057Z" fill="#F2E8C9"/>
<path d="M19.8333 51.3334C19.1893 51.3334 18.6666 50.8107 18.6666 50.1667V47.8334C18.6666 47.1894 19.1893 46.6667 19.8333 46.6667C20.4773 46.6667 21 47.1894 21 47.8334V50.1667C21 50.8107 20.4773 51.3334 19.8333 51.3334Z" fill="#F2E8C9"/>
<path d="M5.83412 21C5.36045 21 4.91478 20.7107 4.74212 20.2417C4.51578 19.6373 4.82145 18.9653 5.42578 18.7413L42.5258 4.88832C44.3294 4.21165 46.4481 5.22432 47.0641 7.04198L51.2711 19.4577C51.4764 20.069 51.1498 20.7293 50.5408 20.937C49.9364 21.1447 49.2691 20.8157 49.0614 20.2067L44.8544 7.79098C44.6491 7.18432 43.9444 6.85298 43.3401 7.07232L6.24012 20.9253C6.10712 20.9767 5.96945 21 5.83412 21Z" fill="#F2E8C9"/>
</g>
<defs>
<clipPath id="clip0_237_174">
<rect width="56" height="56" fill="white"/>
</clipPath>
</defs>
</svg>
