<svg width="57" height="57" viewBox="0 0 57 57" fill="none" xmlns="http://www.w3.org/2000/svg">
<path d="M50.7633 18.9686H28.0133C27.4883 18.9686 27.1383 18.6186 27.1383 18.0936V5.84363C27.1383 5.31863 27.4883 4.96863 28.0133 4.96863H50.7633C51.2883 4.96863 51.6383 5.31863 51.6383 5.84363V18.0936C51.6383 18.6186 51.2883 18.9686 50.7633 18.9686ZM28.8883 17.2186H49.8883V6.71863H28.8883V17.2186Z" fill="#F2E8C9"/>
<path d="M35.0133 11.4436H28.0133C27.4883 11.4436 27.1383 11.0936 27.1383 10.5686V5.84363C27.1383 5.31863 27.4883 4.96863 28.0133 4.96863H35.0133C35.5383 4.96863 35.8883 5.31863 35.8883 5.84363V10.5686C35.8883 11.0936 35.5383 11.4436 35.0133 11.4436ZM28.8883 9.69363H34.1383V6.71863H28.8883V9.69363Z" fill="#F2E8C9"/>
<path d="M50.0633 52.2186H5.78827C5.43827 52.2186 5.26327 52.0436 5.08827 51.8686C4.91327 51.6936 4.91327 51.3436 4.91327 51.1686C7.53827 40.4936 16.9883 32.9686 28.0133 32.9686C39.0383 32.9686 48.4883 40.4936 51.1133 51.1686C51.1133 51.3436 51.1133 51.6936 50.9383 51.8686C50.5883 52.0436 50.4133 52.2186 50.0633 52.2186ZM7.01327 50.4686H49.0133C46.3883 41.1936 37.8133 34.7186 28.0133 34.7186C18.2133 34.7186 9.63827 41.1936 7.01327 50.4686Z" fill="#F5D15F"/>
<path d="M14.3633 45.2186C14.1883 45.2186 14.0133 45.2186 13.8383 45.0436C13.4883 44.6936 13.4883 44.1686 13.8383 43.8186C16.2883 41.0186 19.4383 38.9186 22.9383 37.5186C23.4633 37.3436 23.8133 37.5186 23.9883 38.0436C24.1633 38.5686 23.9883 38.9186 23.4633 39.0936C20.3133 40.3186 17.3383 42.4186 15.0633 44.8686C14.7133 45.0436 14.5383 45.2186 14.3633 45.2186Z" fill="#F2E8C9"/>
<path d="M28.0133 34.7186C27.4883 34.7186 27.1383 34.3686 27.1383 33.8436V5.84363C27.1383 5.31863 27.4883 4.96863 28.0133 4.96863C28.5383 4.96863 28.8883 5.31863 28.8883 5.84363V33.8436C28.8883 34.3686 28.5383 34.7186 28.0133 34.7186Z" fill="#F5D15F"/>
</svg>
