<svg width="56" height="57" viewBox="0 0 56 57" fill="none" xmlns="http://www.w3.org/2000/svg">
<path d="M22.225 52.2186C22.05 52.2186 21.7 52.0436 21.525 52.0436L15.75 46.2686C15.4 45.9186 15.4 45.3936 15.75 45.0436L18.725 41.1936L15.225 37.6936L11.55 40.8436C11.2 41.1936 10.675 41.0186 10.325 40.8436L4.54998 35.0686C4.37498 34.8936 4.19998 34.5436 4.37498 34.1936C4.54998 33.8436 4.72498 33.6686 4.89998 33.4936L18.55 28.4186C18.9 28.2436 19.25 28.4186 19.425 28.5936L27.825 36.9936C28 37.1686 28.175 37.5186 28 37.8686L22.925 51.5186C22.75 51.8686 22.575 52.0436 22.225 52.0436C22.4 52.2186 22.225 52.2186 22.225 52.2186ZM17.675 45.5686L21.875 49.7686L26.25 38.0436L18.725 30.3436L6.99998 34.7186L11.2 38.9186L15.05 35.9436C15.225 35.5936 15.75 35.5936 16.1 35.9436L20.65 40.4936C21 40.8436 21 41.3686 20.65 41.7186L17.675 45.5686Z" fill="#F5D15F"/>
<path d="M12.95 50.9936C12.775 50.9936 12.425 50.8187 12.25 50.8187L5.77495 44.3437C5.59995 44.1687 5.42495 43.9937 5.59995 43.6437C5.59995 43.4687 5.77495 43.1187 5.94995 42.9437L14.875 35.9437C15.225 35.5937 15.75 35.5937 16.1 35.9437L20.65 40.4936C21 40.8436 21 41.3687 20.65 41.7187L13.65 50.6437C13.475 50.8187 13.3 50.9936 12.95 50.9936ZM7.87495 43.6437L12.95 48.7187L18.9 41.1937L15.4 37.6937L7.87495 43.6437Z" fill="#F2E8C9"/>
<path d="M27.3 38.5686C27.125 38.5686 26.775 38.5686 26.6 38.3936L18.2 29.9936C18.025 29.8186 18.025 29.6436 18.025 29.2936C18.025 28.9436 18.2 28.7686 18.2 28.5936L40.075 6.89363C41.475 5.49363 43.575 4.79363 45.675 4.96863L50.4 5.49363C50.75 5.49363 51.1 5.84363 51.1 6.19363L51.625 10.9186C51.8 13.0186 51.1 14.9436 49.7 16.5186L27.825 38.3936C27.65 38.5686 27.475 38.5686 27.3 38.5686ZM20.125 29.2936L27.3 36.4686L48.475 15.2936C49.525 14.2436 50.05 12.6686 49.875 11.0936L49.35 7.06863L45.325 6.54363C43.75 6.36863 42.35 6.89363 41.125 7.94363L20.125 29.2936Z" fill="#F5D15F"/>
<path d="M37.45 16.3436C37.275 16.3436 36.925 16.1686 36.75 15.9936C36.4 15.6436 36.4 15.1186 36.75 14.7686L40.25 11.6186C40.6 11.2686 41.125 11.2686 41.475 11.6186C41.825 11.9686 41.825 12.4936 41.475 12.8436L37.975 15.9936C37.975 16.3436 37.8 16.3436 37.45 16.3436Z" fill="#F2E8C9"/>
</svg>
