<svg width="25" height="25" viewBox="0 0 25 25" fill="none" xmlns="http://www.w3.org/2000/svg">
<path d="M12.5049 6.88477C9.39941 6.88477 6.89453 9.38965 6.89453 12.4951C6.89453 15.6006 9.39941 18.1055 12.5049 18.1055C15.6104 18.1055 18.1152 15.6006 18.1152 12.4951C18.1152 9.38965 15.6104 6.88477 12.5049 6.88477ZM12.5049 16.1426C10.498 16.1426 8.85742 14.5068 8.85742 12.4951C8.85742 10.4834 10.4932 8.84766 12.5049 8.84766C14.5166 8.84766 16.1523 10.4834 16.1523 12.4951C16.1523 14.5068 14.5117 16.1426 12.5049 16.1426ZM19.6533 6.65527C19.6533 7.38281 19.0674 7.96387 18.3447 7.96387C17.6172 7.96387 17.0361 7.37793 17.0361 6.65527C17.0361 5.93262 17.6221 5.34668 18.3447 5.34668C19.0674 5.34668 19.6533 5.93262 19.6533 6.65527ZM23.3691 7.9834C23.2861 6.23047 22.8857 4.67773 21.6016 3.39844C20.3223 2.11914 18.7695 1.71875 17.0166 1.63086C15.21 1.52832 9.79492 1.52832 7.98828 1.63086C6.24023 1.71387 4.6875 2.11426 3.40332 3.39355C2.11914 4.67285 1.72363 6.22559 1.63574 7.97852C1.5332 9.78516 1.5332 15.2002 1.63574 17.0068C1.71875 18.7598 2.11914 20.3125 3.40332 21.5918C4.6875 22.8711 6.23535 23.2715 7.98828 23.3594C9.79492 23.4619 15.21 23.4619 17.0166 23.3594C18.7695 23.2764 20.3223 22.876 21.6016 21.5918C22.8809 20.3125 23.2812 18.7598 23.3691 17.0068C23.4717 15.2002 23.4717 9.79004 23.3691 7.9834ZM21.0352 18.9453C20.6543 19.9023 19.917 20.6396 18.9551 21.0254C17.5146 21.5967 14.0967 21.4648 12.5049 21.4648C10.9131 21.4648 7.49023 21.5918 6.05469 21.0254C5.09766 20.6445 4.36035 19.9072 3.97461 18.9453C3.40332 17.5049 3.53516 14.0869 3.53516 12.4951C3.53516 10.9033 3.4082 7.48047 3.97461 6.04492C4.35547 5.08789 5.09277 4.35059 6.05469 3.96484C7.49512 3.39355 10.9131 3.52539 12.5049 3.52539C14.0967 3.52539 17.5195 3.39844 18.9551 3.96484C19.9121 4.3457 20.6494 5.08301 21.0352 6.04492C21.6064 7.48535 21.4746 10.9033 21.4746 12.4951C21.4746 14.0869 21.6064 17.5098 21.0352 18.9453Z" fill="white"/>
</svg>
