<svg width="534" height="1165" viewBox="0 0 534 1165" fill="none" xmlns="http://www.w3.org/2000/svg">
<g opacity="0.4">
<path d="M-38.3128 673C12.4321 662.62 45.0235 613.694 34.482 563.723C23.9406 513.751 -25.7418 481.657 -76.4868 492.038C-127.232 502.418 -159.823 551.344 -149.282 601.315C-138.74 651.287 -89.0578 683.381 -38.3128 673Z" stroke="url(#paint0_linear_229_65)" stroke-miterlimit="10"/>
<path d="M-129.973 691.468C-68.8893 730.927 13.1119 714.152 53.1822 654C93.2525 593.848 76.2181 513.096 15.1348 473.637C-45.9485 434.177 -127.95 450.952 -168.02 511.104C-208.09 571.257 -191.056 652.008 -129.973 691.468Z" stroke="url(#paint1_linear_229_65)" stroke-miterlimit="10"/>
<path d="M-20.4891 757.494C77.6424 737.419 140.668 642.807 120.283 546.171C99.8977 449.535 3.82094 387.47 -94.3105 407.545C-192.442 427.619 -255.468 522.231 -235.082 618.867C-214.697 715.503 -118.62 777.568 -20.4891 757.494Z" stroke="url(#paint2_linear_229_65)" stroke-miterlimit="10"/>
<path d="M-10.8963 802.968C112.739 777.677 192.144 658.475 166.461 536.725C140.778 414.974 19.7318 336.778 -103.903 362.07C-227.538 387.362 -306.944 506.563 -281.261 628.314C-255.578 750.065 -134.531 828.26 -10.8963 802.968Z" stroke="url(#paint3_linear_229_65)" stroke-miterlimit="10"/>
<path d="M-221.636 829.071C-83.3808 918.383 102.22 880.415 192.915 744.267C283.609 608.119 245.054 425.347 106.798 336.034C-31.457 246.722 -217.058 284.69 -307.752 420.838C-398.447 556.986 -359.892 739.758 -221.636 829.071Z" stroke="url(#paint4_linear_229_65)" stroke-miterlimit="10"/>
<path d="M-279.817 916.41C-92.5787 1037.37 158.779 985.946 281.607 801.561C404.434 617.177 352.218 369.649 164.98 248.694C-22.2586 127.739 -273.617 179.159 -396.444 363.543C-519.271 547.928 -467.056 795.455 -279.817 916.41Z" stroke="url(#paint5_linear_229_65)" stroke-miterlimit="10"/>
<path d="M-327.938 988.647C-100.187 1135.77 205.558 1073.23 354.962 848.948C504.366 624.668 440.852 323.583 213.101 176.456C-14.6511 29.3296 -320.396 91.8751 -469.8 316.156C-619.203 540.436 -555.69 841.521 -327.938 988.647Z" stroke="url(#paint6_linear_229_65)" stroke-miterlimit="10"/>
<path d="M-359.664 1036.27C-105.202 1200.65 236.4 1130.77 403.325 880.191C570.25 629.608 499.288 293.213 244.826 128.832C-9.63536 -35.5495 -351.237 34.3311 -518.162 284.914C-685.087 535.498 -614.125 871.893 -359.664 1036.27Z" stroke="url(#paint7_linear_229_65)" stroke-miterlimit="10"/>
<path d="M-381.357 1068.66C-108.7 1244.8 257.327 1169.92 436.188 901.421C615.05 632.92 539.013 272.471 266.357 96.3361C-6.29984 -79.7989 -372.327 -4.92157 -551.188 263.579C-730.049 532.08 -654.013 892.529 -381.357 1068.66Z" stroke="url(#paint8_linear_229_65)" stroke-miterlimit="10"/>
</g>
<defs>
<linearGradient id="paint0_linear_229_65" x1="471.896" y1="1031.52" x2="-158.134" y2="543" gradientUnits="userSpaceOnUse">
<stop stop-color="#F9BDB1" stop-opacity="0.24"/>
<stop offset="1" stop-color="#040327"/>
</linearGradient>
<linearGradient id="paint1_linear_229_65" x1="471.896" y1="1031.52" x2="-158.134" y2="543" gradientUnits="userSpaceOnUse">
<stop stop-color="#F9BDB1" stop-opacity="0.24"/>
<stop offset="1" stop-color="#040327"/>
</linearGradient>
<linearGradient id="paint2_linear_229_65" x1="471.896" y1="1031.52" x2="-158.134" y2="543" gradientUnits="userSpaceOnUse">
<stop stop-color="#F9BDB1" stop-opacity="0.24"/>
<stop offset="1" stop-color="#040327"/>
</linearGradient>
<linearGradient id="paint3_linear_229_65" x1="471.896" y1="1031.52" x2="-158.134" y2="543" gradientUnits="userSpaceOnUse">
<stop stop-color="#F9BDB1" stop-opacity="0.24"/>
<stop offset="1" stop-color="#040327"/>
</linearGradient>
<linearGradient id="paint4_linear_229_65" x1="471.896" y1="1031.52" x2="-158.134" y2="543" gradientUnits="userSpaceOnUse">
<stop stop-color="#F9BDB1" stop-opacity="0.24"/>
<stop offset="1" stop-color="#040327"/>
</linearGradient>
<linearGradient id="paint5_linear_229_65" x1="471.896" y1="1031.52" x2="-158.134" y2="543" gradientUnits="userSpaceOnUse">
<stop stop-color="#F9BDB1" stop-opacity="0.24"/>
<stop offset="1" stop-color="#040327"/>
</linearGradient>
<linearGradient id="paint6_linear_229_65" x1="471.896" y1="1031.52" x2="-158.134" y2="543" gradientUnits="userSpaceOnUse">
<stop stop-color="#F9BDB1" stop-opacity="0.24"/>
<stop offset="1" stop-color="#040327"/>
</linearGradient>
<linearGradient id="paint7_linear_229_65" x1="471.896" y1="1031.52" x2="-158.134" y2="543" gradientUnits="userSpaceOnUse">
<stop stop-color="#F9BDB1" stop-opacity="0.24"/>
<stop offset="1" stop-color="#040327"/>
</linearGradient>
<linearGradient id="paint8_linear_229_65" x1="471.896" y1="1031.52" x2="-158.134" y2="543" gradientUnits="userSpaceOnUse">
<stop stop-color="#F9BDB1" stop-opacity="0.24"/>
<stop offset="1" stop-color="#040327"/>
</linearGradient>
</defs>
</svg>
