<svg width="201" height="42" viewBox="0 0 201 42" fill="none" xmlns="http://www.w3.org/2000/svg">
<path d="M3.73478 26.4007C2.57887 26.2062 1.82155 25.9728 1.33527 25.5837C0.856966 25.2141 0.398588 24.4748 0.398588 24.0857C0.396595 23.8912 0.378659 23.8912 0.199294 24.0857C-1.85905e-07 24.2803 0 24.2803 0 23.8912C0 23.6967 0 23.5799 0 23.5799C0 23.5877 4.98634 23.5877 10.9672 23.5799L21.8427 23.5663L22.5601 22.866V21.2124C22.5601 19.6367 22.5462 19.5394 22.2612 19.2242L21.9622 18.8935H12.9621C3.98987 18.8935 3.95998 18.8935 3.13689 18.5628C2.10056 18.2127 1.44289 17.629 1.18381 16.7731C0.924725 15.9366 0.82508 13.5165 0.964586 12.1431C1.16388 10.9175 1.34324 10.295 1.9212 9.77945C3.03725 8.76785 3.53548 8.72894 13.6317 8.72894C22.0918 8.73088 23.0524 8.72894 24.2621 9.15692C25.3781 9.50709 26.544 10.6549 26.3627 11.2054V11.4583H6.14823L5.84929 11.7501C5.57028 12.0225 5.55035 12.1003 5.55035 13.6177C5.55234 14.9794 5.55035 15.2323 5.7895 15.4852L6.02865 15.777H14.8434C22.5063 15.777 23.7559 15.777 24.4195 16.0494C25.8545 16.419 26.4125 16.8275 26.8928 17.8391C27.1519 18.4033 27.1718 18.5589 27.1718 21.086C27.1718 24.2161 27.1718 24.6635 26.2152 25.4339C25.6173 25.9591 24.8998 26.2315 23.5945 26.4066C22.4784 26.6011 4.5738 26.6011 3.56338 26.3988L3.73478 26.4007ZM35.4724 26.4007C35.4724 26.4007 35.4724 22.4575 35.4724 17.7341V9.14719L35.7514 8.89429L36.0304 8.62194H58.7679L59.585 8.89429C60.6214 9.24446 61.279 9.80862 61.578 10.5284C61.7773 11.0148 61.7972 11.4622 61.7972 13.925V16.7614L61.4783 17.4034C60.9203 18.4928 59.884 18.9791 57.7216 19.1737C56.9643 19.1737 52.9704 19.3682 48.8331 19.3682L41.3077 19.3702L40.67 20.1094V26.4727H38.1449C36.7499 26.4727 35.588 26.4727 35.5441 26.4727L35.4724 26.4007ZM55.7048 16.3879C56.5019 16.0377 56.6414 15.707 56.6414 13.9309C56.6414 12.5886 56.6215 12.394 56.3824 12.1022C55.8443 11.4019 56.0635 11.4213 48.3249 11.3824H41.226L40.9072 11.7521C40.5883 12.1217 40.5883 12.1411 40.5883 14.0126V15.8996L41.4253 16.7167H48.303C54.7123 16.7167 55.2145 16.7167 55.6968 16.4638L55.7048 16.3879ZM81.9339 24.8542C81.0371 23.648 80.5787 23.1228 80.1203 22.8446L79.5224 22.4555H71.73C67.3894 22.4555 63.9575 22.4555 63.9815 22.261C64.0014 22.261 64.5195 21.5606 65.1174 20.8409L66.2136 19.5375L71.5507 19.5316C76.7443 19.5277 76.8957 19.5199 77.111 19.2787C77.5494 18.7924 77.4298 18.52 75.0483 15.1428C73.7927 13.3531 72.7624 11.7987 72.7584 11.6859C72.7504 11.4525 75.1001 8.5383 75.2934 8.53635C75.2934 8.53635 79.3331 13.6352 87.2471 24.0274L89.0407 26.3696H83.1516L81.9359 24.755L81.9339 24.8542ZM100.225 26.4105C98.6706 26.2159 97.5765 25.8463 97.1141 25.3405C96.9148 25.146 96.7753 24.8542 96.6358 24.5235L96.3568 23.9398V11.1762L96.7156 10.4759C97.154 9.61992 97.712 9.2114 98.832 8.91959C99.5495 8.72505 100.426 8.7056 109.61 8.7056H119.599L120.475 8.97795C120.994 9.17249 121.532 9.40593 121.791 9.61992C122.249 10.0285 122.668 10.7677 122.668 11.2151L122.672 11.4875H112.496C103.607 11.4875 102.272 11.4875 101.959 11.682L101.6 11.8766V22.9594L102.358 23.5819H122.56V23.9126C122.56 24.5157 121.982 25.4495 121.384 25.7802C120.188 26.4611 120.308 26.4416 110.028 26.4805C104.835 26.4941 100.418 26.4844 100.219 26.4805L100.225 26.4105ZM131.241 26.4066C131.241 26.4066 131.241 23.7297 131.241 20.5549V14.7849H147.95V17.5084H137.222L136.584 18.1699V23.1345L137.262 23.757H156.137V26.4027H143.741C136.927 26.4027 131.311 26.4027 131.267 26.4027L131.241 26.4066ZM131.16 8.63751H156.346V11.5945H131.16V8.63751ZM3.85236 26.4883C2.43737 26.2743 1.79166 26.0603 1.18181 25.5934C0.783226 25.2822 0.185343 24.2511 0.125555 23.7648V23.473H10.9632C16.9221 23.4574 21.9204 23.473 22.0699 23.473C22.5681 23.2784 22.7076 22.8504 22.7076 21.1755C22.7076 19.7942 22.6877 19.5997 22.4684 19.4052C22.2691 19.2106 22.1097 19.1328 21.9503 19.1134C21.751 19.1134 17.7511 19.1134 12.9561 19.1134H4.23899L3.42188 18.841C2.30584 18.4714 1.62823 17.8294 1.32331 16.8684C1.0443 15.9735 1.00444 12.2773 1.32331 11.2871C1.66211 9.9448 2.55894 9.26976 4.4343 8.95266C5.90908 8.69976 22.0838 8.69976 23.5068 8.94293C24.6826 9.13747 25.4001 9.44873 26.0757 10.0713C26.7333 10.6549 26.9725 11.1412 26.7732 11.4914L26.5739 11.7443H16.4697C6.5249 11.7443 6.35948 11.7482 6.12033 11.9777C5.9011 12.1917 5.88118 12.3668 5.88118 13.7286C5.88118 15.0903 5.9011 15.2849 6.14026 15.5572L6.39934 15.8685L14.2914 15.8704C18.632 15.8724 22.6976 15.8704 23.3314 16.065C24.9855 16.2595 25.978 16.5513 26.5819 17.1349C27.399 17.9325 27.5186 18.4189 27.5186 21.442C27.5186 23.6772 27.5186 24.1305 27.2993 24.6771C26.8609 25.9027 25.8445 26.5253 23.8675 26.8365C23.1899 27.031 20.34 27.031 14.0861 27.031C6.16816 27.031 5.10791 27.033 3.91613 26.8365L3.85236 26.4883ZM35.2731 17.9111L35.2671 9.10245L35.9049 8.51884H58.6842L59.5213 8.79119C60.5377 9.1219 61.3149 9.78333 61.6218 10.5615C61.8211 11.0478 61.841 11.4953 61.841 14.0087C61.841 16.8061 61.8311 16.9229 61.562 17.4656C60.9841 18.5939 59.868 19.1387 57.6578 19.3332C56.9603 19.3332 52.9804 19.5277 48.8072 19.5277L41.22 19.5316L40.961 19.8429C40.7218 20.1541 40.7019 20.2514 40.7417 23.4477V26.7373H35.2372L35.2332 17.9267L35.2731 17.9111ZM55.631 16.2965C56.4083 15.9463 56.5079 15.6545 56.5079 13.9581C56.5079 12.324 56.5079 12.0711 55.8104 11.7384C55.4517 11.5439 54.8338 11.5244 48.3647 11.505H41.3117L41.0128 11.7968C40.7138 12.0886 40.7138 12.1275 40.7138 13.9737V15.8607L41.5907 16.5999H48.3907C54.4253 16.5999 55.2384 16.5999 55.633 16.3665L55.631 16.2965ZM83.0021 26.6284C83.02 26.6284 82.4839 25.7918 81.8063 24.8775C80.7899 23.4963 80.4711 23.1656 79.9728 22.8991L79.3749 22.5878H71.5507C67.2499 22.5878 63.7284 22.5878 63.7284 22.5878C63.7284 22.5878 64.2864 21.868 64.964 21.051L66.1996 19.5919H76.9376L77.1369 19.2418C77.3362 18.9499 77.3362 18.8332 77.1369 18.6192C77.1369 18.4247 76.0009 16.9268 74.7732 15.1837C73.5575 13.4329 72.5531 11.9408 72.5531 11.8532C72.5531 11.8532 73.151 10.9778 73.9083 10.0829C75.2037 8.52662 75.2635 8.46826 75.4628 8.68225C75.6621 8.87679 78.6814 12.8376 82.3544 17.6465C86.0274 22.4575 89.1145 26.4863 89.2101 26.5992C89.4094 26.7937 89.2161 26.8132 86.1749 26.8132C84.4211 26.8132 82.9802 26.8132 82.9981 26.8132L83.0021 26.6284ZM101.12 26.6284C101.1 26.6284 100.602 26.4338 100.044 26.4338C97.989 26.1809 97.0663 25.6751 96.5242 24.5079L96.2452 23.8854V17.5629C96.2452 11.8182 96.2651 11.184 96.4644 10.6412C96.7235 9.88254 97.4011 9.24057 98.2182 8.92931C99.4339 8.48188 100.48 8.44297 110.305 8.48188C120.659 8.48188 120.38 8.48188 121.615 9.24058C122.233 9.6102 122.871 10.6412 122.811 11.1665V11.4583H112.508C104.02 11.4583 102.166 11.4583 102.003 11.6723C101.804 11.8668 101.804 12.3532 101.804 17.2341V22.6345L102.481 23.257H122.749V23.5877C122.749 24.93 121.673 25.9261 119.889 26.2062C119.431 26.2062 118.754 26.4007 118.395 26.4591C117.757 26.6536 101.287 26.6536 101.18 26.4591L101.12 26.6284ZM131.072 20.6813L131.092 14.6837H147.99V17.5629H137.134L136.895 17.8352C136.676 18.0881 136.656 18.3216 136.656 20.5296C136.656 22.936 136.658 22.9458 136.955 23.2356L137.254 23.5274H146.571C151.697 23.5274 155.98 23.5274 156.087 23.5274C156.287 23.5274 156.287 23.8192 156.287 25.0643L156.269 26.5233H131.116V20.5238L131.072 20.6813ZM131.092 11.5206C131.092 11.5206 131.092 10.723 131.072 9.96426V8.54413H156.44V11.7345H143.781C133.467 11.7345 131.114 11.7345 131.064 11.54L131.092 11.5206ZM3.93606 26.5603C2.10256 26.3268 1.01839 25.7821 0.504215 24.8483C0.0259088 23.9924 -0.0338812 23.5449 0.26506 23.3893C0.464355 23.3893 3.88225 23.1948 11.3458 23.1948H22.1835L22.3827 22.9419C22.6418 22.5722 22.6618 19.5841 22.3987 19.2379C22.1994 19.0239 21.9602 19.0044 13.3487 18.9461C3.87827 18.9461 3.83044 18.9461 2.65261 18.2652C2.01487 17.9539 1.69599 17.6038 1.35719 16.884C1.09811 16.3198 1.07818 16.1642 1.07818 13.6255V10.9583L1.43691 10.258C1.91522 9.36314 2.59282 8.87679 3.88823 8.58499C4.7452 8.39045 5.5623 8.37099 13.9068 8.37099C22.1416 8.37099 23.0603 8.37099 23.8037 8.58499C24.8201 8.83789 25.5176 9.18805 26.0537 9.65494C26.7313 10.2775 26.9904 11.0362 26.6516 11.3669C26.4523 11.5614 24.1166 11.5614 16.4737 11.5614C9.78934 11.5614 6.36347 11.5614 6.20602 11.7559C5.9868 11.9505 5.96687 12.0283 5.96687 13.5068C5.96687 15.0242 5.9868 15.1604 6.22596 15.3549C6.46511 15.5689 6.84377 15.5883 15.3975 15.6467C22.9547 15.6467 24.4076 15.6467 24.9198 15.8996C26.1355 16.2692 26.7931 16.7556 27.1837 17.631C27.6222 18.5648 27.7617 21.158 27.5225 23.2667C27.3033 25.1538 26.6457 25.928 24.7783 26.4358C23.8416 26.6887 23.722 26.6887 14.2695 26.7081C9.0081 26.7198 4.36056 26.7081 3.94005 26.7081L3.93606 26.5603ZM35.2711 17.7711V8.85734L35.6896 8.60444C36.0882 8.35154 36.1679 8.35154 46.6189 8.35154C53.1757 8.35154 57.5203 8.35153 58.1461 8.54607C59.4615 8.74061 60.3862 9.05187 61.0239 9.63549C61.8809 10.3942 61.9407 10.7444 61.9008 14.2538V17.2536L61.5421 17.8372C61.1236 18.4986 60.2467 19.0822 59.3239 19.3157C58.9054 19.5102 56.3883 19.5102 50.0867 19.5297C41.7801 19.5297 41.4014 19.5297 41.1583 19.8215C40.9191 20.0355 40.8992 20.1327 40.8992 23.3971V26.747H35.3289V17.8333L35.2711 17.7711ZM55.3042 16.2731C55.6031 16.2731 55.9619 16.0202 56.1213 15.8451C56.3804 15.5728 56.4003 15.4172 56.4402 14.1721C56.4402 12.4796 56.2409 12.0127 55.643 11.7054C55.2245 11.5108 54.5469 11.5108 48.2432 11.5108H41.3018L41.0626 11.7832C40.8633 12.0361 40.8235 12.2695 40.8235 13.9464V15.8335L41.4612 16.4171H48.1097C52.536 16.4171 54.9315 16.4171 55.2843 16.2225L55.3042 16.2731ZM81.8243 25.0137C80.9474 23.8076 80.4691 23.2628 80.0705 23.0119L79.5324 22.6812L71.6364 22.6792C66.656 22.6773 63.7184 22.6792 63.6725 22.4847C63.6725 22.2902 65.5658 19.9246 66.0601 19.4985C66.2793 19.304 66.7377 19.2846 71.6085 19.2846C76.8818 19.2846 76.9216 19.2826 77.0572 19.0317C77.0572 18.8371 77.2564 18.7009 77.0572 18.5842C77.0572 18.3897 75.961 16.9112 74.6856 15.0845C73.4101 13.2753 72.3678 11.719 72.3678 11.6451C72.3678 11.4311 75.0423 8.28539 75.2157 8.28539C75.415 8.28539 88.8614 25.8074 89.246 26.4572C89.246 26.6517 88.668 26.6517 86.145 26.6517L82.9603 26.6459L81.7446 24.9923L81.8243 25.0137ZM99.6492 26.4922C97.7758 26.2004 96.881 25.6362 96.3847 24.4359C96.1256 23.7939 96.1057 23.6578 96.0659 18.0667C96.0659 12.1119 96.0838 11.0926 96.5242 10.2561C97.0623 9.24447 98.1983 8.66085 100.078 8.48577C101.572 8.29123 117.713 8.29123 119.088 8.48965C120.324 8.68419 121.324 8.93709 121.894 9.36507C122.353 9.71524 122.931 10.7463 122.931 11.2326V11.5633H112.755C101.957 11.5633 102.029 11.5614 101.815 12.1081C101.815 12.3026 101.815 14.6254 101.815 17.4695V22.6364L102.493 23.259H112.633C124.045 23.259 123.052 23.259 122.779 24.1927C122.421 25.5545 121.464 26.214 119.431 26.5097C117.737 26.7626 101.345 26.7431 99.7229 26.5019L99.6492 26.4922ZM131.068 20.6191V14.5631H148.02V17.5785H142.647C137.392 17.5785 137.264 17.5824 136.951 17.8314L136.632 18.0843V23.1306L136.951 23.3835C137.27 23.6169 137.35 23.6364 146.683 23.6364C155.426 23.6364 156.105 23.65 156.179 23.8309C156.179 24.0254 156.179 24.6285 156.179 25.3678L156.159 26.7101H130.879V20.6522L131.068 20.6191ZM131.092 11.6256C131.092 11.6256 131.092 10.7891 131.072 9.93313V8.39628H156.5V11.7034H143.813C133.455 11.7034 131.116 11.7054 131.066 11.5089L131.092 11.6256ZM3.64908 26.5408C1.75578 26.2879 0.595889 25.5292 0.221215 24.2686C0.0219211 23.7239 0.0219211 23.5488 0.221215 23.4126C0.42051 23.2181 1.87536 23.2181 11.2402 23.2181H22.1137L22.3728 22.9068C22.592 22.6345 22.6319 22.44 22.6319 21.0977C22.6319 19.7942 22.6319 19.5608 22.3927 19.3079L22.1536 19.0356H13.2132C3.96396 19.0356 3.76866 19.0355 2.77816 18.4519C1.30339 17.7127 0.845007 16.3665 0.984514 13.0671C0.984514 10.933 1.26353 10.2989 2.04077 9.5635C2.67851 8.96044 3.29633 8.70754 4.65153 8.513C5.20955 8.513 8.54774 8.31846 14.5206 8.513C23.4968 8.513 23.5387 8.513 24.3418 8.80481C25.418 9.15497 26.2351 9.71914 26.6656 10.4C26.9845 10.9058 27.0044 10.9836 26.8649 11.3143L26.6656 11.6645H16.5992C7.6808 11.6645 6.49899 11.6645 6.26183 11.859C6.00275 12.0536 5.98282 12.1314 5.98282 13.5515C5.98282 14.6604 5.98282 15.1273 6.18211 15.2829C6.3814 15.4969 6.62056 15.5164 15.1703 15.5747C24.5152 15.5747 24.7524 15.5747 25.9023 16.2361C27.3173 16.9365 27.676 17.9675 27.676 21.2611C27.676 24.4437 27.3173 25.4358 25.8624 26.1576C24.7265 26.7217 24.7264 26.7217 14.2994 26.7606C8.90646 26.7743 4.12938 26.7606 3.68296 26.7606L3.64908 26.5408ZM35.1515 17.8177L35.1475 8.96628L35.9049 8.34376H58.7002L59.5173 8.61611C60.5735 8.96628 61.2711 9.49153 61.6637 10.2308C61.9626 10.8144 61.9825 10.8338 61.9825 13.7772C61.9825 17.0727 61.9825 17.3411 61.2252 18.1154C60.707 18.6601 60.149 18.9713 59.1167 19.2437C58.4391 19.4382 57.323 19.4382 49.8794 19.4966C41.4512 19.4966 41.4034 19.4966 41.1324 19.7884C40.8534 20.0413 40.8533 20.0608 40.8533 23.327V26.6167H35.1695L35.1635 17.7633L35.1515 17.8177ZM55.629 16.1253C55.8682 15.9307 56.1273 15.814 56.207 15.6973C56.207 15.5027 56.4063 14.8024 56.4063 13.927C56.4063 12.1761 56.207 11.8843 55.4696 11.6626C55.1906 11.6626 52.5101 11.468 48.2233 11.468L41.4213 11.4661L41.1623 11.7773C40.9231 12.0691 40.9032 12.2442 40.9032 13.855V15.6253L41.6206 16.3256H48.4325C54.4791 16.3256 55.2942 16.3256 55.6888 16.0922L55.629 16.1253ZM81.8044 25.037C80.9474 23.8698 80.4292 23.3056 80.0107 23.0275L79.4327 22.6384H71.5148C65.1832 22.6384 63.6008 22.6384 63.6008 22.4439C63.6008 22.2493 65.1952 20.302 65.8727 19.6114L66.1916 19.2807H71.4709C75.417 19.2807 76.7901 19.2807 76.8977 19.0861C77.2365 18.7554 76.8977 18.308 74.6856 15.0106C72.852 12.394 72.3518 11.5945 72.4395 11.4447C72.7185 10.9583 75.1459 8.1784 75.2914 8.1784C75.2914 8.1784 78.5718 12.2462 82.3783 17.2186C86.1848 22.191 89.3556 26.3268 89.4214 26.4085C89.4214 26.6031 88.8634 26.6031 86.2725 26.6031H83.0041L81.8083 24.9689L81.8044 25.037ZM99.701 26.535C97.5147 26.2626 96.4744 25.4261 96.1715 23.7297C95.9722 23.185 95.9722 21.119 95.9722 16.9637V10.9856L96.3309 10.2852C96.59 9.77945 96.8491 9.48764 97.2875 9.19583C98.5431 8.35932 98.9616 8.33986 109.472 8.33986C119.355 8.34375 119.991 8.33986 121.157 8.92348C121.456 9.11802 121.894 9.39037 122.134 9.66272C122.632 10.2269 122.991 11.2385 122.791 11.4719C122.592 11.6665 120.838 11.6665 112.4 11.6665C102.613 11.6665 102.13 11.6762 101.939 11.8805C101.74 12.075 101.74 12.6391 101.74 17.4267V22.7571L102.059 23.01C102.377 23.2434 102.437 23.2629 112.534 23.2629H122.688L122.686 23.6519C122.686 24.3328 122.427 24.9359 121.948 25.4611C121.35 26.0836 120.573 26.3949 119.164 26.57C117.968 26.7645 100.747 26.7645 99.5894 26.5661L99.701 26.535ZM130.952 20.6055L130.972 14.5495H139.502C146.242 14.5495 148.048 14.5515 148.126 14.744C148.325 14.958 148.325 17.2925 148.126 17.559C147.926 17.773 147.807 17.7925 142.639 17.7925H137.276L137.017 18.0648C136.758 18.3372 136.758 18.4344 136.758 20.7027C136.758 23.0236 136.764 23.0742 137.037 23.3251L137.316 23.578H146.697C153.833 23.578 156.113 23.578 156.225 23.7725C156.225 23.7725 156.424 24.3951 156.424 25.3678V26.8268H131.002V20.7689L130.952 20.6055ZM130.972 11.6159C130.972 11.6159 130.972 10.7794 130.952 9.9234V8.38656H156.5V11.6937H143.751C133.346 11.6937 130.994 11.6956 130.944 11.4992L130.972 11.6159ZM3.64908 26.5311C1.75578 26.2782 0.595889 25.5195 0.221215 24.2589C0.0219211 23.7142 0.0219211 23.5391 0.221215 23.4029C0.42051 23.2084 1.87536 23.2084 11.2402 23.2084H22.1137L22.3728 22.8971C22.592 22.6248 22.6319 22.4302 22.6319 21.0879C22.6319 19.7845 22.6319 19.5511 22.3927 19.2982L22.1536 19.0258H13.2132C3.96396 19.0258 3.76866 19.0258 2.77816 18.4422C1.30339 17.703 0.845007 16.3568 0.984514 13.0574C0.984514 10.9233 1.26353 10.2891 2.04077 9.55378C2.67851 8.95072 3.29633 8.69781 4.65153 8.50327C5.20955 8.50327 8.54774 8.30873 14.5206 8.50327C23.4968 8.50327 23.5387 8.50328 24.3418 8.79508C25.418 9.14525 26.2351 9.70941 26.6656 10.3903C26.9845 10.8961 27.0044 10.9739 26.8649 11.3046L26.6656 11.6548H16.5992C7.6808 11.6548 6.49899 11.6548 6.26183 11.8493C6.00275 12.0439 5.98282 12.1217 5.98282 13.5418C5.98282 14.6507 5.98282 15.1176 6.18211 15.2732C6.3814 15.4872 6.62056 15.5066 15.1703 15.565C24.5152 15.565 24.7524 15.565 25.9023 16.2264C27.3173 16.9268 27.676 17.9578 27.676 21.2513C27.676 24.434 27.3173 25.4261 25.8624 26.1478C24.7265 26.712 24.7264 26.712 14.2994 26.7509C8.90646 26.7645 4.12938 26.7509 3.68296 26.7509L3.64908 26.5311ZM35.1515 17.808L35.1475 8.95655L35.9049 8.33403H58.7002L59.5173 8.60638C60.5735 8.95655 61.2711 9.4818 61.6637 10.221C61.9626 10.8047 61.9825 10.8241 61.9825 13.7675C61.9825 17.0629 61.9825 17.3314 61.2252 18.1057C60.707 18.6504 60.149 18.9616 59.1167 19.234C58.4391 19.4285 57.323 19.4285 49.8794 19.4869C41.4512 19.4869 41.4034 19.4869 41.1324 19.7787C40.8534 20.0316 40.8533 20.051 40.8533 23.3173V26.607H35.1695L35.1635 17.7535L35.1515 17.808ZM55.629 16.1155C55.8682 15.921 56.1273 15.8043 56.207 15.6876C56.207 15.493 56.4063 14.7927 56.4063 13.9173C56.4063 12.1664 56.207 11.8746 55.4696 11.6528C55.1906 11.6528 52.5101 11.4583 48.2233 11.4583L41.4213 11.4564L41.1623 11.7676C40.9231 12.0594 40.9032 12.2345 40.9032 13.8453V15.6156L41.6206 16.3159H48.4325C54.4791 16.3159 55.2942 16.3159 55.6888 16.0825L55.629 16.1155ZM81.8044 25.0273C80.9474 23.8601 80.4292 23.2959 80.0107 23.0177L79.4327 22.6287H71.5148C65.1832 22.6287 63.6008 22.6287 63.6008 22.4341C63.6008 22.2396 65.1952 20.2923 65.8727 19.6017L66.1916 19.2709H71.4709C75.417 19.2709 76.7901 19.2709 76.8977 19.0764C77.2365 18.7457 76.8977 18.2982 74.6856 15.0008C72.852 12.3843 72.3518 11.5848 72.4395 11.435C72.7185 10.9486 75.1459 8.16867 75.2914 8.16867C75.2914 8.16867 78.5718 12.2365 82.3783 17.2088C86.1848 22.1812 89.3556 26.3171 89.4214 26.3988C89.4214 26.5933 88.8634 26.5933 86.2725 26.5933H83.0041L81.8083 24.9592L81.8044 25.0273ZM99.701 26.5252C97.5147 26.2529 96.4744 25.4164 96.1715 23.72C95.9722 23.1753 95.9722 21.1093 95.9722 16.954V10.9759L96.3309 10.2755C96.59 9.76972 96.8491 9.47791 97.2875 9.18611C98.5431 8.3496 98.9616 8.33014 109.472 8.33014C119.355 8.33403 119.991 8.33013 121.157 8.91375C121.456 9.10828 121.894 9.38064 122.134 9.65299C122.632 10.2172 122.991 11.2287 122.791 11.4622C122.592 11.6567 120.838 11.6567 112.4 11.6567C102.613 11.6567 102.13 11.6665 101.939 11.8707C101.74 12.0653 101.74 12.6294 101.74 17.417V22.7473L102.059 23.0002C102.377 23.2337 102.437 23.2531 112.534 23.2531H122.688L122.686 23.6422C122.686 24.3231 122.427 24.9261 121.948 25.4514C121.35 26.0739 120.573 26.3852 119.164 26.5603C117.968 26.7548 100.747 26.7548 99.5894 26.5564L99.701 26.5252ZM130.952 20.5957L130.972 14.5398H139.502C146.242 14.5398 148.048 14.5417 148.126 14.7343C148.325 14.9483 148.325 17.2828 148.126 17.5493C147.926 17.7633 147.807 17.7827 142.639 17.7827H137.276L137.017 18.0551C136.758 18.3274 136.758 18.4247 136.758 20.693C136.758 23.0138 136.764 23.0644 137.037 23.3154L137.316 23.5683H146.697C153.833 23.5683 156.113 23.5683 156.225 23.7628C156.225 23.7628 156.424 24.3853 156.424 25.358V26.8171H131.002V20.7591L130.952 20.5957ZM130.972 11.6061C130.972 11.6061 130.972 10.7696 130.952 9.91367V8.37683H156.5V11.684H143.751C133.346 11.684 130.994 11.6859 130.944 11.4894L130.972 11.6061ZM3.54943 26.533C1.5525 26.2801 0.506208 25.5214 0.147479 24.1208C-0.0518158 23.5761 -0.051816 23.5371 0.346773 23.3232C0.605855 23.1092 1.12402 23.1092 11.4395 23.1092C22.0121 23.1092 22.2612 23.1033 22.3827 22.8757C22.3827 22.6812 22.582 21.903 22.582 20.9887C22.582 19.5102 22.5621 19.3157 22.3628 19.2184C22.1635 19.2184 18.7277 19.0239 13.4344 19.0239C3.77264 19.0239 3.7009 19.0239 2.51709 18.1874C1.28146 17.3703 1.08217 16.7672 1.08217 13.6177C1.08217 10.828 1.28146 10.2424 1.97899 9.49153C2.53702 8.94682 3.07511 8.69393 4.20312 8.44103C4.98036 8.24649 6.11634 8.24649 13.9765 8.24649C22.2153 8.2426 22.9448 8.25816 23.8416 8.46048C25.0373 8.73283 25.8146 9.14136 26.4484 9.80279C26.9864 10.3864 27.1459 10.7949 26.9466 11.2229L26.7473 11.5147H16.7626C10.5706 11.5147 6.66241 11.5147 6.46909 11.7093L6.15022 11.9038V13.5379C6.15022 14.9775 6.15022 15.2109 6.36945 15.3666C6.56874 15.5611 7.32606 15.5611 14.8355 15.5611C20.063 15.5611 23.4231 15.5611 24.019 15.7556C25.8325 16.0085 26.841 16.5921 27.383 17.7458C27.6023 18.2321 27.6421 18.5434 27.682 20.8506C27.7019 22.4847 27.672 23.65 27.682 24.0702C27.3432 25.6265 26.1673 26.5136 24.1086 26.7353C22.8531 26.9299 4.74121 26.9299 3.70687 26.7373L3.54943 26.533ZM35.1495 17.7925V8.93321L35.4286 8.68031C35.6278 8.48577 35.8271 8.3885 35.9866 8.33014C36.3453 8.1356 55.2823 8.1356 57.345 8.33597C59.8262 8.53051 61.0339 9.03631 61.7155 10.2833C61.9546 10.7307 61.9746 10.9447 62.0144 13.6332C62.0144 16.8431 62.0144 17.3956 61.3169 18.1737C61.1176 18.4072 60.6592 18.7574 60.3005 18.913C59.025 19.5161 58.447 19.555 49.6323 19.555C42.4876 19.5589 41.4851 19.555 41.2479 19.7495C40.9889 19.944 40.9689 19.9635 40.9689 23.1092C40.9689 24.86 40.9689 26.3677 40.9689 26.4688C40.9689 26.6634 40.5305 26.6634 38.0612 26.6634H35.2313V17.8041L35.1495 17.7925ZM55.3919 16.1194C56.189 15.9054 56.3285 15.5942 56.3285 13.9892C56.3285 12.3746 56.3286 12.0828 55.6908 11.7871C55.3321 11.5925 54.7741 11.5731 48.4106 11.5342C42.3202 11.5342 41.4931 11.5206 41.236 11.7287C40.957 11.9232 40.957 11.9427 40.957 13.8608C40.957 15.6506 40.9769 15.8276 41.1961 16.0455C41.4353 16.2789 41.5947 16.2789 48.1894 16.2789C52.4423 16.2789 55.1029 16.279 55.3859 16.0844L55.3919 16.1194ZM82.1551 25.5506C81.6967 24.9475 81.1387 24.1889 80.8995 23.8581C80.6205 23.4885 80.2219 23.1383 79.8632 22.9438L79.2653 22.6325H71.3673C64.2943 22.6325 63.4792 22.6131 63.543 22.438C63.543 22.2435 64.1608 21.6015 64.8384 20.7844L66.074 19.306H71.3753C76.0368 19.306 76.7024 19.3059 76.8698 19.1114C77.0691 18.9169 77.0691 18.8391 77.0691 18.7223C77.0691 18.5278 76.0328 17.0299 74.7533 15.2148C73.4778 13.4056 72.4136 11.8299 72.3877 11.7326C72.3877 11.4797 75.114 8.16672 75.3512 8.21147C75.5505 8.21147 89.541 26.4241 89.541 26.5836C89.541 26.5836 88.0662 26.5836 86.2705 26.5836H83.0021L82.185 25.4942L82.1551 25.5506ZM99.6213 26.5233C97.987 26.3288 96.9408 25.7257 96.3987 24.6557L96.1197 24.0916V17.7283C96.1197 10.509 96.1197 10.4798 96.9567 9.55962C97.5147 8.976 98.2521 8.62584 99.4319 8.41184C100.628 8.1784 118.528 8.17839 119.77 8.40795C121.544 8.71921 122.594 9.49736 122.983 10.7599C123.262 11.6937 124.198 11.6159 112.719 11.6159C103.621 11.6159 102.417 11.6159 102.178 11.8104L101.919 12.005V22.5878L102.477 23.0936H112.528C120.647 23.0936 122.62 23.0936 122.795 23.2881C122.994 23.4827 122.994 23.5021 122.795 24.1052C122.556 25.2724 121.859 25.9533 120.487 26.3949C119.87 26.5894 119.112 26.6089 110.076 26.6284C104.715 26.64 99.9999 26.6128 99.6013 26.6284L99.6213 26.5233ZM130.918 20.6113C130.918 14.7771 130.926 14.5845 131.158 14.4659C131.516 14.2713 147.765 14.2713 148.036 14.4659C148.235 14.6604 148.235 14.7966 148.235 16.0805V17.559H142.762C137.716 17.559 137.272 17.559 137.073 17.8314C136.873 18.0259 136.853 18.2982 136.853 20.4576C136.853 22.617 136.873 22.8932 137.073 23.0819C137.272 23.2765 137.87 23.2959 146.818 23.3543H156.35V26.5058H130.914V20.481L130.918 20.6113ZM131.064 11.7268C130.865 11.5322 130.865 11.0848 130.865 10.0148C130.865 8.59471 130.885 8.43908 131.104 8.32236C131.363 8.12782 155.998 8.12782 156.348 8.32236C156.627 8.51689 156.627 11.7365 156.348 11.8435C156.348 11.8435 150.531 11.8435 143.657 11.8435C134.099 11.8435 131.126 11.8435 131.014 11.649L131.064 11.7268ZM3.17077 26.5311C2.19423 26.3365 1.11804 25.9475 0.69753 25.4028C0.498235 25.1888 0.298941 24.7024 0.199294 24.3328C-1.85905e-07 23.7881 -1.85905e-07 23.613 0.199294 23.3796C0.199294 23.185 0.438448 23.0683 0.558024 23.0489C0.757318 23.0489 5.51846 23.0294 11.3458 23.0547C20.6967 23.0547 21.9682 23.0547 22.1815 22.8602C22.4007 22.6656 22.4206 22.5489 22.4206 21.012C22.4206 19.6503 22.4206 19.3196 22.2213 19.2418C22.2213 19.2418 19.0067 19.0472 14.413 19.0472C10.2178 19.0453 6.17812 19.0472 5.43874 18.8527C3.52552 18.6581 2.60079 18.3858 1.87536 17.6855C1.05825 16.8878 0.898818 16.3042 0.8191 14.0145C0.619806 9.94286 1.37712 8.7231 4.08553 8.17645C5.44074 7.9041 22.1795 7.9041 23.6244 8.16478C24.8799 8.39823 25.7189 8.82621 26.3906 9.546C27.0283 10.2463 27.1678 10.6354 26.9287 11.0634L26.7294 11.3747H16.5275C7.63497 11.3747 6.31364 11.3747 6.214 11.6081C6.214 11.6081 6.0147 12.4057 6.0147 13.1644C6.01271 14.2927 6.0147 14.5845 6.23393 14.7791C6.45315 15.032 6.49301 15.032 15.2241 15.0709C23.1281 15.0709 24.0728 15.0709 24.7185 15.3238C26.3926 15.7907 27.1618 16.5104 27.5225 17.8897C27.8016 18.9597 27.7218 23.3582 27.3233 24.2005C27.0243 24.9787 26.267 25.6985 25.3702 26.0486L24.6527 26.321L14.2416 26.3404C8.51385 26.3502 3.46772 26.321 3.02728 26.3404L3.17077 26.5311ZM35.1097 26.5311C35.1097 26.5311 35.1097 22.4964 35.1097 17.6602V8.86901L35.9069 8.16867L47.0494 8.17061C58.9353 8.17256 59.0788 8.18035 60.3304 8.75423C61.0478 9.08495 61.6059 9.62965 61.9247 10.2911C62.1639 10.7969 62.1838 11.0303 62.1838 13.8959V16.9676L61.8649 17.5512C61.3468 18.5045 60.709 18.9324 59.2801 19.341C58.6224 19.5355 57.7057 19.555 50.0189 19.5939C41.5389 19.5939 41.4811 19.5939 41.2699 19.8857C41.0706 20.0997 41.0507 20.4498 41.0507 23.3698V26.607H38.1629C36.5685 26.607 35.2432 26.607 35.1994 26.607L35.1097 26.5311ZM55.5433 15.9249C55.7626 15.9249 56.0216 15.6525 56.0814 15.5164C56.0814 15.3218 56.2807 14.6409 56.2807 13.785C56.2807 12.1119 56.2807 11.9563 55.344 11.717C55.0451 11.717 52.53 11.5225 48.1954 11.5225C41.6665 11.5225 41.4991 11.5283 41.2619 11.7559C41.0427 11.9699 41.0228 12.145 41.0228 13.6819C41.0228 15.2187 41.0228 15.4133 41.2818 15.6914L41.5409 16.0027H48.3767C53.9968 16.0027 55.2842 16.0027 55.6211 15.8082L55.5433 15.9249ZM82.8227 26.463C82.8227 26.463 82.1451 25.6654 81.5473 24.8483C80.9494 24.0507 80.2518 23.2531 79.9928 23.078L79.5145 22.7668H71.461C64.117 22.7668 63.4115 22.7668 63.4254 22.5139C63.4334 22.3193 64.0233 21.619 64.7408 20.763L66.0362 19.2067H76.8579L76.8559 18.8566C76.8559 18.5842 76.258 17.6699 74.5142 15.1584C73.2188 13.3298 72.2003 11.7482 72.2322 11.6665C72.4315 11.3163 75.128 8.16089 75.2934 8.16089C75.4927 8.16089 89.5091 26.3657 89.5091 26.5972C89.5091 26.7918 83.0699 26.7918 82.8188 26.5972L82.8227 26.463ZM99.2506 26.463C97.7957 26.2685 96.8172 25.6654 96.2691 24.5137C95.9901 23.9301 95.9901 23.9107 95.9503 17.7185C95.9503 10.3864 95.9503 10.3981 96.9667 9.36702C97.4848 8.86122 97.7439 8.7056 98.4813 8.47215L99.3781 8.1998H119.72L120.577 8.47215C121.055 8.66669 121.653 8.88068 121.912 9.07522C122.69 9.61992 123.387 11.1315 123.048 11.5264C122.849 11.7209 121.494 11.7209 112.679 11.7209C105.861 11.7209 102.374 11.7209 102.218 11.9155C101.999 12.11 101.979 12.2267 101.979 17.3314V22.6248L102.537 23.1306H112.719C124.13 23.1306 123.148 23.1306 122.921 24.0254C122.562 25.6206 121.605 26.3579 119.674 26.5564C118.439 26.7509 100.488 26.7509 99.2466 26.5486L99.2506 26.463ZM130.879 26.463C130.879 26.463 130.879 14.6954 130.871 14.4367C130.871 14.2421 131.807 14.2421 139.578 14.2421C147.334 14.2421 148.213 14.2616 148.279 14.4367C148.478 14.7479 148.279 17.2069 148.279 17.4501C148.08 17.6641 147.96 17.6835 142.772 17.6835C137.551 17.6835 137.382 17.6913 137.146 17.917C136.927 18.1309 136.907 18.306 136.907 20.4576C136.907 22.6053 136.925 22.7784 137.146 22.9983C137.386 23.2317 137.545 23.2317 146.816 23.2317C154.722 23.2317 156.271 23.2317 156.386 23.4263C156.386 23.6208 156.586 24.0682 156.386 25.0604V26.5194H143.663C136.668 26.535 130.904 26.5136 130.859 26.5194L130.879 26.463ZM130.871 11.5809C130.671 11.3085 130.871 8.42352 130.891 8.25038C130.891 8.05584 133.633 8.05584 143.815 8.05584H156.641V11.5964H143.789C132.148 11.5964 130.93 11.6081 130.865 11.4019L130.871 11.5809Z" fill="white"/>
<path d="M201 7.9707C194.935 10.5598 182.195 14.1393 169.81 38.8138C174.455 21.8501 185.774 9.51286 188.871 7.9707H201Z" fill="white"/>
<path d="M175.702 7.9707H165.305L178.301 16.6345L180.9 13.169L175.702 7.9707Z" fill="white"/>
</svg>
