<svg width="621" height="621" viewBox="0 0 621 621" fill="none" xmlns="http://www.w3.org/2000/svg">
<g filter="url(#filter0_d_229_2042)">
<path d="M369.864 561.636C508.563 528.85 594.422 389.834 561.636 251.136C528.85 112.437 389.834 26.5782 251.136 59.3641C112.437 92.1499 26.5782 231.166 59.3641 369.864C92.15 508.563 231.166 594.422 369.864 561.636Z" fill="url(#paint0_linear_229_2042)"/>
<g style="mix-blend-mode:multiply" opacity="0.5">
<g style="mix-blend-mode:multiply" opacity="0.5">
<path d="M190.557 150.96C188.259 162.506 189.429 178.07 199.246 181.542C202.02 182.133 204.87 182.046 207.613 181.288C210.356 180.53 212.932 179.117 215.173 177.14C227.943 168.012 238.178 154.693 251.077 145.838C263.975 136.983 281.75 133.573 293.252 144.709C306.001 157.111 304.551 180.587 297.71 198.123C291.146 210.752 286.181 224.4 282.963 238.652C282.232 244.636 282.641 250.732 284.16 256.515C285.679 262.299 288.272 267.63 291.759 272.136C295.316 276.575 299.785 279.906 304.752 281.823C309.719 283.739 315.025 284.178 320.178 283.099C327.875 280.721 334.962 276.238 340.841 270.028C352.884 258.698 363.596 245.603 372.707 231.074C389.3 204.597 403.433 170.914 430.874 162.865C439.772 160.555 449.049 161.118 457.688 164.494C466.327 167.869 473.994 173.926 479.848 182.001C485.539 190.224 489.445 199.9 491.239 210.221C493.032 220.542 492.662 231.208 490.159 241.33C488.828 247.901 485.938 253.913 481.814 258.693C476.879 263.184 471.081 266.238 464.909 267.597C441.694 272.414 418.947 279.866 397 289.846C392.901 291.611 389.175 294.365 386.069 297.923C382.964 301.481 380.55 305.763 378.989 310.482C377.893 320.152 379.865 329.954 384.542 338.076C387.896 347.405 393.374 355.513 400.394 361.54C414.464 371.548 432.614 363.474 447.489 355.277L529.875 310.073C535.532 307.687 540.481 303.483 544.138 297.956C546.415 292.86 547.58 287.197 547.531 281.462C549.475 257.824 548.389 233.984 544.309 210.711C540.137 187.306 529.601 166.051 514.238 150.042C495.967 134.091 474.076 124.612 451.226 122.759C428.672 119.596 405.689 119.881 383.275 115.317C374.87 114.126 366.799 110.792 359.647 105.557C353.882 99.9892 348.624 93.756 343.956 86.9549C295.25 26.5838 204.337 81.6594 190.557 150.96Z" fill="#CC6338"/>
<path d="M392.952 238.975C393.472 241.885 394.78 244.528 396.688 246.521C398.596 248.514 401.003 249.755 403.562 250.062C405.388 250.46 407.259 250.494 409.094 250.161C420.96 248.222 431.817 241.39 439.66 230.926C442.204 226.849 443.573 221.951 443.573 216.925C443.573 211.899 442.204 207.001 439.66 202.923C438.096 200.557 435.866 198.895 433.355 198.223C430.859 198.094 428.38 198.758 426.189 200.145C423.997 201.532 422.178 203.587 420.929 206.086C418.49 211.109 415.441 215.702 411.875 219.727C408.25 222.316 404.37 224.398 400.319 225.928C397.998 226.827 396.008 228.604 394.671 230.972C393.334 233.34 392.728 236.16 392.952 238.975Z" fill="#CC6338"/>
<path d="M216.376 225.022C212.064 234.096 210.407 244.536 211.65 254.786C212.563 259.746 214.572 264.36 215.334 269.333C216.462 276.662 215.216 285.455 219.995 290.416C221.6 291.902 223.525 292.854 225.564 293.166C227.603 293.479 229.678 293.141 231.562 292.189C235.317 290.207 238.486 287 240.681 282.962C245.568 274.732 247.948 264.86 247.447 254.897C246.102 247.418 245.902 239.724 246.856 232.165C249.918 224.53 254.594 217.907 260.453 212.905C270.634 201.422 277.873 168.78 254.836 175.204C238.103 179.942 223.067 208.54 216.376 225.022Z" fill="#CC6338"/>
<path d="M183.05 218.45C188.209 229.057 190.393 241.25 189.301 253.349C187.282 267.983 178.163 282.356 182.459 296.32C184.532 303.03 189.43 308.127 191.749 314.724C196.754 328.899 188.731 344.228 182.234 357.56C170.874 377.314 166.764 401.465 170.806 424.715C176.477 447.211 199.407 464.611 217.697 454.478C235.063 444.842 238.822 417.1 232.733 395.992C226.01 372.64 211.758 339.515 240.122 326.146C259.808 316.87 280.741 332.099 289.988 351.644C292.822 360.158 297.834 367.473 304.357 372.615C318.813 380.8 335.428 362.309 351.216 365.968C377.69 372.094 378.947 418.687 383.167 441.99C384.546 448.233 385.207 454.659 385.133 461.101C383.887 485.966 362.31 502.026 342.602 512.22C321.079 523.278 298.809 532.287 276.015 539.157C254.786 548.527 231.733 550.973 209.38 546.227C187.028 541.48 166.237 529.724 149.284 512.245C129.952 495.553 110.845 475.487 104.079 448.687C99.4812 425.672 101.227 401.572 109.073 379.759C113.975 366.99 117.377 353.523 119.19 339.714C119.254 323.784 116.506 308.007 111.114 293.344C101.448 261.298 99.3 228.781 122.036 202.911C142.861 179.261 171.021 190.683 183.05 218.45Z" fill="#CC6338"/>
<g style="mix-blend-mode:multiply" opacity="0.5">
<path d="M351.699 323.642C352.376 308.536 325.752 304.27 317.396 309.9C299.611 321.893 308.514 343.831 326.772 343.608C332.387 343.783 337.943 342.247 342.882 339.156C345.325 337.581 347.403 335.349 348.938 332.647C350.473 329.946 351.421 326.856 351.699 323.642Z" fill="#D16111"/>
</g>
</g>
</g>
<g style="mix-blend-mode:multiply" opacity="0.2">
<path d="M345.451 534.646C295.445 534.706 246.483 520.437 204.449 493.551C162.415 466.666 129.095 428.308 108.492 383.084C87.8885 337.861 80.8784 287.695 88.303 238.614C95.7276 189.532 117.271 143.621 150.347 106.397C121.831 128.554 98.2955 156.383 81.2503 188.096C64.2051 219.81 54.0263 254.71 51.3667 290.557C48.707 326.404 53.6248 362.406 65.8054 396.256C77.9861 430.106 97.1606 461.056 122.099 487.121C147.037 513.185 177.188 533.789 210.619 547.611C244.049 561.433 280.022 568.168 316.229 567.384C352.436 566.599 388.078 558.313 420.87 543.057C453.661 527.801 482.878 505.911 506.647 478.792C460.828 514.971 404.002 534.661 345.451 534.646Z" fill="#222226"/>
</g>
<g style="mix-blend-mode:overlay" opacity="0.39">
<path d="M309.424 50.6654C268.596 50.6705 228.359 60.5007 192.054 79.3396C153.814 125.311 132.508 183.206 131.749 243.21C130.99 303.215 150.823 361.639 187.888 408.58C224.953 455.521 276.97 488.092 335.122 500.773C393.274 513.454 453.984 505.464 506.963 478.159C538.571 440.233 558.782 393.991 565.22 344.873C571.658 295.755 564.053 245.804 543.302 200.896C522.551 155.989 489.517 117.993 448.084 91.3794C406.652 64.7653 358.545 50.6402 309.424 50.6654Z" fill="white"/>
</g>
</g>
<defs>
<filter id="filter0_d_229_2042" x="21.6122" y="36.1391" width="576.056" height="576.055" filterUnits="userSpaceOnUse" color-interpolation-filters="sRGB">
<feFlood flood-opacity="0" result="BackgroundImageFix"/>
<feColorMatrix in="SourceAlpha" type="matrix" values="0 0 0 0 0 0 0 0 0 0 0 0 0 0 0 0 0 0 127 0" result="hardAlpha"/>
<feOffset dy="14.5263"/>
<feGaussianBlur stdDeviation="14.5263"/>
<feColorMatrix type="matrix" values="0 0 0 0 0.976471 0 0 0 0 0.521569 0 0 0 0 0 0 0 0 0.29 0"/>
<feBlend mode="normal" in2="BackgroundImageFix" result="effect1_dropShadow_229_2042"/>
<feBlend mode="normal" in="SourceGraphic" in2="effect1_dropShadow_229_2042" result="shape"/>
</filter>
<linearGradient id="paint0_linear_229_2042" x1="59.3641" y1="369.864" x2="561.636" y2="251.136" gradientUnits="userSpaceOnUse">
<stop stop-color="#D46C36"/>
<stop offset="1" stop-color="#7C262F"/>
</linearGradient>
</defs>
</svg>
