<svg width="1440" height="275" viewBox="0 0 1440 275" fill="none" xmlns="http://www.w3.org/2000/svg">
<path d="M282.655 113.188C278.617 38.8615 204.588 11.7424 133.252 11.7424H0V370.317H1512.88V11.7424H1394.43C1312.33 11.7424 1258.49 39.8659 1245.03 113.188C1228.88 101.135 1188.5 102.139 1165.62 113.188C1148.12 35.8483 1020.25 44.888 1009.48 113.188C996.023 108.166 973.141 110.175 966.411 124.236C927.378 113.188 897.766 120.219 868.155 135.285C823.738 124.236 777.974 135.285 761.823 163.408C721.443 128.254 674.334 124.236 624.533 135.285C581.46 116.676 566.656 108.166 519.547 113.188C500.703 29.8218 366.106 51.9188 363.414 113.188C336.494 104.148 305.537 105.153 282.655 113.188Z" fill="url(#paint0_radial_229_437)"/>
<path d="M220.63 34.6079C212.898 15.4082 205.469 8.01436 183.836 3.96063H123.74V219.48H1422.56V3.96063H1340.38C1314.67 7.37805 1301.99 11.4157 1292.55 34.6079C1254.53 27.6872 1236.14 34.6079 1217.74 52.4032C1169.91 24.7214 1104.9 23.7327 1066.88 64.2666C1025.18 3.95974 916.03 -25.6984 824.046 34.6079C773.761 3.96063 719.797 9.89202 680.551 34.6079C613.096 -17.7894 510.073 -12.8455 449.977 64.2666C408.278 27.688 343.275 24.7222 299.123 52.4032C277.047 34.6079 250.065 29.6653 220.63 34.6079Z" fill="url(#paint1_radial_229_437)"/>
<path d="M908.724 81.3868C894.258 30.4668 860.506 26.3378 816.421 26.3388H766.826V220.383H1257.27V26.3388H1189.76C1134.4 25.5117 1108.14 26.3391 1094.02 81.3868C1061.3 71.7528 1036.85 92.3958 1033.4 126.113C1016.52 114.759 986.217 111.663 963.83 126.113C963.83 91.7077 935.243 75.8814 908.724 81.3868Z" fill="url(#paint2_radial_229_437)"/>
<defs>
<radialGradient id="paint0_radial_229_437" cx="0" cy="0" r="1" gradientUnits="userSpaceOnUse" gradientTransform="translate(756.439 81.0468) rotate(90) scale(179.789 758.558)">
<stop stop-color="#DB684C"/>
<stop offset="1" stop-color="#FF8F70" stop-opacity="0"/>
</radialGradient>
<radialGradient id="paint1_radial_229_437" cx="0" cy="0" r="1" gradientUnits="userSpaceOnUse" gradientTransform="translate(759.044 55.3629) rotate(90) scale(164.111 594.501)">
<stop stop-color="#F0A795"/>
<stop offset="1" stop-color="#FF8C70" stop-opacity="0"/>
</radialGradient>
<radialGradient id="paint2_radial_229_437" cx="0" cy="0" r="1" gradientUnits="userSpaceOnUse" gradientTransform="translate(1002.4 83.9932) rotate(84.2834) scale(96.8155 190.252)">
<stop stop-color="#FF8C70"/>
<stop offset="1" stop-color="#FF8C70" stop-opacity="0"/>
</radialGradient>
</defs>
</svg>
