<svg width="1440" height="1241" viewBox="0 0 1440 1241" fill="none" xmlns="http://www.w3.org/2000/svg">
<ellipse cx="45.5995" cy="1235.88" rx="0.464243" ry="0.383456" fill="#C4C4C4"/>
<ellipse cx="76.2234" cy="1100.74" rx="0.464243" ry="0.383456" fill="#C4C4C4"/>
<ellipse cx="104.063" cy="947.929" rx="0.464243" ry="0.383456" fill="#C4C4C4"/>
<ellipse cx="211.711" cy="1127.61" rx="0.464243" ry="0.383456" fill="#C4C4C4"/>
<ellipse cx="2.44753" cy="1167.93" rx="0.927995" ry="0.767878" fill="#C4C4C4"/>
<ellipse cx="263.678" cy="1026.25" rx="0.464243" ry="0.383456" fill="#C4C4C4"/>
<ellipse cx="53.0236" cy="1037" rx="0.464243" ry="0.383456" fill="#C4C4C4"/>
<ellipse cx="214.495" cy="1099.2" rx="0.464243" ry="0.383456" fill="#C4C4C4"/>
<ellipse cx="105.919" cy="1008.59" rx="0.464243" ry="0.383456" fill="#C4C4C4"/>
<ellipse cx="129.119" cy="1064.65" rx="0.464243" ry="0.383456" fill="#C4C4C4"/>
<ellipse cx="1022.31" cy="1133.37" rx="0.927995" ry="0.767878" fill="#C4C4C4"/>
<ellipse cx="1013.03" cy="1103.42" rx="0.927995" ry="0.767878" fill="#C4C4C4"/>
<ellipse cx="223.31" cy="1009.74" rx="0.927995" ry="0.767878" fill="#C4C4C4"/>
<ellipse cx="654.828" cy="847.721" rx="0.927995" ry="0.767878" fill="#C4C4C4"/>
<ellipse cx="254.862" cy="1086.53" rx="0.927995" ry="0.767878" fill="#C4C4C4"/>
<ellipse cx="225.166" cy="1073.48" rx="0.927995" ry="0.767878" fill="#C4C4C4"/>
<ellipse cx="747.628" cy="817.773" rx="0.927995" ry="0.767878" fill="#C4C4C4"/>
<ellipse cx="136.079" cy="1058.89" rx="0.927995" ry="0.767878" fill="#C4C4C4"/>
<ellipse cx="581.516" cy="975.957" rx="0.927995" ry="0.767878" fill="#C4C4C4"/>
<ellipse cx="669.212" cy="824.301" rx="0.464243" ry="0.383456" fill="#C4C4C4"/>
<ellipse cx="765.724" cy="855.783" rx="0.464243" ry="0.383456" fill="#C4C4C4"/>
<ellipse cx="1117.43" cy="849.641" rx="0.464243" ry="0.383456" fill="#C4C4C4"/>
<ellipse cx="115.199" cy="1189.04" rx="0.464243" ry="0.383456" fill="#C4C4C4"/>
<ellipse cx="1072.89" cy="1086.15" rx="0.464243" ry="0.383456" fill="#C4C4C4"/>
<ellipse cx="555.069" cy="907.999" rx="0.464243" ry="0.383456" fill="#C4C4C4"/>
<ellipse cx="1074.75" cy="1218.99" rx="0.464243" ry="0.383456" fill="#C4C4C4"/>
<ellipse cx="602.397" cy="878.82" rx="0.464243" ry="0.383456" fill="#C4C4C4"/>
<ellipse cx="595.901" cy="828.14" rx="0.464243" ry="0.383456" fill="#C4C4C4"/>
<ellipse cx="320.75" cy="1137.98" rx="0.927995" ry="0.767878" fill="#C4C4C4"/>
<ellipse cx="214.495" cy="1221.29" rx="0.464243" ry="0.383456" fill="#C4C4C4"/>
<ellipse cx="566.205" cy="831.979" rx="0.464243" ry="0.383456" fill="#C4C4C4"/>
<ellipse cx="536.509" cy="818.925" rx="0.464243" ry="0.383456" fill="#C4C4C4"/>
<ellipse cx="338.846" cy="849.641" rx="0.464243" ry="0.383456" fill="#C4C4C4"/>
<ellipse cx="329.566" cy="819.693" rx="0.464243" ry="0.383456" fill="#C4C4C4"/>
<ellipse cx="244.19" cy="834.283" rx="0.464243" ry="0.383456" fill="#C4C4C4"/>
<ellipse cx="325.854" cy="844.265" rx="0.464243" ry="0.383456" fill="#C4C4C4"/>
<ellipse cx="1249.67" cy="826.221" rx="0.927995" ry="0.767878" fill="#C4C4C4"/>
<ellipse cx="1064.54" cy="1046.98" rx="0.464243" ry="0.383456" fill="#C4C4C4"/>
<ellipse cx="154.639" cy="241.865" rx="0.927995" ry="0.767878" fill="#C4C4C4"/>
<ellipse cx="145.359" cy="211.919" rx="0.927995" ry="0.767878" fill="#C4C4C4"/>
<ellipse cx="91.0712" cy="398.895" rx="0.464243" ry="0.383456" fill="#C4C4C4"/>
<ellipse cx="199.647" cy="428.075" rx="0.464243" ry="0.383456" fill="#C4C4C4"/>
<ellipse cx="279.454" cy="408.11" rx="0.464243" ry="0.383456" fill="#C4C4C4"/>
<ellipse cx="229.806" cy="456.104" rx="0.927995" ry="0.767878" fill="#C4C4C4"/>
<ellipse cx="155.103" cy="421.164" rx="0.464243" ry="0.383456" fill="#C4C4C4"/>
<ellipse cx="205.215" cy="194.639" rx="0.464243" ry="0.383456" fill="#C4C4C4"/>
<ellipse cx="207.071" cy="327.483" rx="0.464243" ry="0.383456" fill="#C4C4C4"/>
<ellipse cx="92.9274" cy="302.911" rx="0.464243" ry="0.383456" fill="#C4C4C4"/>
<ellipse cx="86.4313" cy="252.231" rx="0.464243" ry="0.383456" fill="#C4C4C4"/>
<ellipse cx="86.4313" cy="153.942" rx="0.464243" ry="0.383456" fill="#C4C4C4"/>
<ellipse cx="196.863" cy="155.478" rx="0.464243" ry="0.383456" fill="#C4C4C4"/>
<ellipse cx="1251.07" cy="991.698" rx="0.464243" ry="0.383456" fill="#C4C4C4"/>
<ellipse cx="1130.89" cy="904.544" rx="0.927995" ry="0.767878" fill="#C4C4C4"/>
<ellipse cx="263.678" cy="958.678" rx="0.464243" ry="0.383456" fill="#C4C4C4"/>
<ellipse cx="300.334" cy="943.706" rx="0.927995" ry="0.767878" fill="#C4C4C4"/>
<ellipse cx="270.174" cy="930.268" rx="0.464243" ry="0.383456" fill="#C4C4C4"/>
<ellipse cx="457.165" cy="925.276" rx="0.927995" ry="0.767878" fill="#C4C4C4"/>
<ellipse cx="559.245" cy="854.632" rx="0.927995" ry="0.767878" fill="#C4C4C4"/>
<ellipse cx="85.0391" cy="817.006" rx="0.927995" ry="0.767878" fill="#C4C4C4"/>
<ellipse cx="1423.67" cy="1144.51" rx="0.464243" ry="0.383456" fill="#C4C4C4"/>
<ellipse cx="20.0796" cy="956.76" rx="0.927995" ry="0.767878" fill="#C4C4C4"/>
<ellipse cx="1421.82" cy="1235.88" rx="0.464243" ry="0.383456" fill="#C4C4C4"/>
<ellipse cx="61.8394" cy="482.979" rx="0.927995" ry="0.767878" fill="#C4C4C4"/>
<ellipse cx="52.5592" cy="453.032" rx="0.927995" ry="0.767878" fill="#C4C4C4"/>
<ellipse cx="51.1676" cy="747.512" rx="0.464243" ry="0.383456" fill="#C4C4C4"/>
<ellipse cx="130.975" cy="814.318" rx="0.464243" ry="0.383456" fill="#C4C4C4"/>
<ellipse cx="239.551" cy="756.727" rx="0.464243" ry="0.383456" fill="#C4C4C4"/>
<ellipse cx="161.135" cy="842.346" rx="0.927995" ry="0.767878" fill="#C4C4C4"/>
<ellipse cx="86.4313" cy="807.407" rx="0.464243" ry="0.383456" fill="#C4C4C4"/>
<ellipse cx="104.063" cy="465.702" rx="0.464243" ry="0.383456" fill="#C4C4C4"/>
<ellipse cx="1055.26" cy="665.349" rx="0.464243" ry="0.383456" fill="#C4C4C4"/>
<ellipse cx="1019.53" cy="693.378" rx="0.927995" ry="0.767878" fill="#C4C4C4"/>
<ellipse cx="1010.71" cy="658.439" rx="0.464243" ry="0.383456" fill="#C4C4C4"/>
<ellipse cx="948.539" cy="540.186" rx="0.464243" ry="0.383456" fill="#C4C4C4"/>
<ellipse cx="860.379" cy="538.65" rx="0.464243" ry="0.383456" fill="#C4C4C4"/>
<ellipse cx="851.099" cy="508.702" rx="0.464243" ry="0.383456" fill="#C4C4C4"/>
<ellipse cx="847.387" cy="533.275" rx="0.464243" ry="0.383456" fill="#C4C4C4"/>
<ellipse cx="763.868" cy="614.669" rx="0.464243" ry="0.383456" fill="#C4C4C4"/>
<ellipse cx="765.724" cy="675.332" rx="0.464243" ry="0.383456" fill="#C4C4C4"/>
<ellipse cx="917.451" cy="720.253" rx="0.927995" ry="0.767878" fill="#C4C4C4"/>
<ellipse cx="908.171" cy="690.306" rx="0.927995" ry="0.767878" fill="#C4C4C4"/>
<ellipse cx="959.675" cy="702.975" rx="0.464243" ry="0.383456" fill="#C4C4C4"/>
<ellipse cx="175.519" cy="646.152" rx="0.464243" ry="0.383456" fill="#C4C4C4"/>
<ellipse cx="61.3756" cy="621.581" rx="0.464243" ry="0.383456" fill="#C4C4C4"/>
<ellipse cx="54.8794" cy="570.901" rx="0.464243" ry="0.383456" fill="#C4C4C4"/>
<ellipse cx="517.949" cy="577.043" rx="0.464243" ry="0.383456" fill="#C4C4C4"/>
<ellipse cx="688.7" cy="794.353" rx="0.464243" ry="0.383456" fill="#C4C4C4"/>
<ellipse cx="768.508" cy="861.158" rx="0.464243" ry="0.383456" fill="#C4C4C4"/>
<ellipse cx="1146.2" cy="803.568" rx="0.464243" ry="0.383456" fill="#C4C4C4"/>
<ellipse cx="813.052" cy="692.993" rx="0.464243" ry="0.383456" fill="#C4C4C4"/>
<ellipse cx="698.908" cy="668.421" rx="0.464243" ry="0.383456" fill="#C4C4C4"/>
<ellipse cx="692.412" cy="617.741" rx="0.464243" ry="0.383456" fill="#C4C4C4"/>
<ellipse cx="610.749" cy="666.885" rx="0.464243" ry="0.383456" fill="#C4C4C4"/>
<ellipse cx="597.757" cy="661.51" rx="0.464243" ry="0.383456" fill="#C4C4C4"/>
<ellipse cx="427.006" cy="636.17" rx="0.464243" ry="0.383456" fill="#C4C4C4"/>
<ellipse cx="620.492" cy="776.309" rx="0.927995" ry="0.767878" fill="#C4C4C4"/>
<ellipse cx="1129.5" cy="928.732" rx="0.464243" ry="0.383456" fill="#C4C4C4"/>
<ellipse cx="1131.35" cy="989.394" rx="0.464243" ry="0.383456" fill="#C4C4C4"/>
<ellipse cx="1248.74" cy="990.547" rx="0.927995" ry="0.767878" fill="#C4C4C4"/>
<ellipse cx="21.9354" cy="71.3968" rx="0.927995" ry="0.767878" fill="#C4C4C4"/>
<ellipse cx="1009.32" cy="952.921" rx="0.927995" ry="0.767878" fill="#C4C4C4"/>
<ellipse cx="1045.51" cy="937.562" rx="0.927995" ry="0.767878" fill="#C4C4C4"/>
<ellipse cx="468.301" cy="314.814" rx="0.927995" ry="0.767878" fill="#C4C4C4"/>
<ellipse cx="459.021" cy="284.867" rx="0.927995" ry="0.767878" fill="#C4C4C4"/>
<ellipse cx="593.117" cy="481.059" rx="0.464243" ry="0.383456" fill="#C4C4C4"/>
<ellipse cx="518.877" cy="267.589" rx="0.464243" ry="0.383456" fill="#C4C4C4"/>
<ellipse cx="520.733" cy="400.432" rx="0.464243" ry="0.383456" fill="#C4C4C4"/>
<ellipse cx="510.525" cy="228.427" rx="0.464243" ry="0.383456" fill="#C4C4C4"/>
<ellipse cx="644.62" cy="308.67" rx="0.927995" ry="0.767878" fill="#C4C4C4"/>
<ellipse cx="717.932" cy="426.156" rx="0.927995" ry="0.767878" fill="#C4C4C4"/>
<ellipse cx="455.309" cy="134.363" rx="0.927995" ry="0.767878" fill="#C4C4C4"/>
<ellipse cx="491.501" cy="119.005" rx="0.927995" ry="0.767878" fill="#C4C4C4"/>
<ellipse cx="1013.96" cy="864.615" rx="0.927995" ry="0.767878" fill="#C4C4C4"/>
<ellipse cx="1260.35" cy="1101.5" rx="0.464243" ry="0.383456" fill="#C4C4C4"/>
<ellipse cx="1137.39" cy="826.221" rx="0.927995" ry="0.767878" fill="#C4C4C4"/>
<ellipse cx="1436.66" cy="1103.04" rx="0.464243" ry="0.383456" fill="#C4C4C4"/>
<ellipse cx="1222.3" cy="1047.75" rx="0.464243" ry="0.383456" fill="#C4C4C4"/>
<ellipse cx="1092.84" cy="819.309" rx="0.927995" ry="0.767878" fill="#C4C4C4"/>
<ellipse cx="1309.99" cy="866.15" rx="0.927995" ry="0.767878" fill="#C4C4C4"/>
<ellipse cx="470.621" cy="39.5284" rx="0.464243" ry="0.383456" fill="#C4C4C4"/>
<ellipse cx="388.958" cy="88.6729" rx="0.464243" ry="0.383456" fill="#C4C4C4"/>
<ellipse cx="294.302" cy="73.3158" rx="0.464243" ry="0.383456" fill="#C4C4C4"/>
<ellipse cx="375.966" cy="83.2976" rx="0.464243" ry="0.383456" fill="#C4C4C4"/>
<ellipse cx="292.446" cy="164.693" rx="0.464243" ry="0.383456" fill="#C4C4C4"/>
<ellipse cx="208.462" cy="173.525" rx="0.927995" ry="0.767878" fill="#C4C4C4"/>
<ellipse cx="307.294" cy="31.8498" rx="0.464243" ry="0.383456" fill="#C4C4C4"/>
<ellipse cx="937.403" cy="385.073" rx="0.464243" ry="0.383456" fill="#C4C4C4"/>
<ellipse cx="968.027" cy="249.927" rx="0.464243" ry="0.383456" fill="#C4C4C4"/>
<ellipse cx="858.987" cy="242.633" rx="0.927995" ry="0.767878" fill="#C4C4C4"/>
<ellipse cx="894.251" cy="317.117" rx="0.927995" ry="0.767878" fill="#C4C4C4"/>
<ellipse cx="1146.67" cy="235.722" rx="0.927995" ry="0.767878" fill="#C4C4C4"/>
<ellipse cx="1116.97" cy="222.668" rx="0.927995" ry="0.767878" fill="#C4C4C4"/>
<ellipse cx="1027.88" cy="208.079" rx="0.927995" ry="0.767878" fill="#C4C4C4"/>
<ellipse cx="1135.99" cy="398.128" rx="0.464243" ry="0.383456" fill="#C4C4C4"/>
<ellipse cx="911.883" cy="105.95" rx="0.927995" ry="0.767878" fill="#C4C4C4"/>
</svg>
